<svg width="133" height="56" viewBox="0 0 133 56" fill="none" xmlns="http://www.w3.org/2000/svg">
<g clip-path="url(#clip0)">
<path d="M17.5823 16.7129H12.6475V36.003H17.5823V16.7129Z" fill="#EC2229"/>
<path d="M13.9766 34.6329H16.2424V18.0396H13.9766V34.6329Z" fill="#EC2229"/>
<path d="M31.7986 21.0298V16.7129H21.0684V35.9921H31.7986V31.6643H25.7962V28.3587H31.6025V24.031H25.7962V21.0298H31.7986Z" fill="#EC2229"/>
<path d="M22.3975 34.6329H30.4587V33.0019H24.4564V27.0213H30.2735V25.3685H24.4564V19.7032H30.4587V18.0396H22.3975V34.6329Z" fill="#EC2229"/>
<path d="M45.6227 31.6643H39.9036V16.7129H34.9688V35.9921H45.6227V31.6643Z" fill="#EC2229"/>
<path d="M47.965 35.9921H52.8998V21.0298H56.6907V16.7129H44.1631V21.0298H47.965V35.9921Z" fill="#EC2229"/>
<path d="M49.3042 34.6329H51.5701V19.7032H55.3501V18.0396H45.5459V19.7032H49.3587L49.3042 34.6329Z" fill="#EC2229"/>
<path d="M71.2656 30.4464C71.2961 29.1798 70.8311 27.9512 69.9692 27.0212C69.5389 26.603 69.0597 26.2379 68.5422 25.9338C67.9672 25.5877 67.3704 25.279 66.7556 25.0095L64.7185 24.0852C64.0338 23.834 63.4233 23.4153 62.9429 22.8674C62.8093 22.6172 62.7489 22.3346 62.7686 22.0518C62.7686 21.0406 63.335 20.5404 64.4571 20.5404C65.5791 20.5404 66.0475 21.1711 66.2327 22.4216H71.1131C71.1179 21.0477 70.67 19.7105 69.8385 18.6157C69.1978 17.8752 68.3813 17.307 67.4637 16.9629C66.5538 16.6098 65.5859 16.4291 64.6096 16.4301C62.9499 16.3981 61.3274 16.9226 60.0016 17.9198C59.3242 18.3876 58.7716 19.0135 58.3919 19.7432C58.0121 20.4728 57.8168 21.284 57.8229 22.1062C57.8109 22.7565 57.9301 23.4026 58.1734 24.006C58.4167 24.6094 58.7791 25.1577 59.239 25.6184C59.696 26.0381 60.2005 26.403 60.7424 26.7058C61.3217 27.038 61.9222 27.3322 62.5398 27.5866L64.6423 28.4891L65.0127 28.6631C65.2474 28.7784 65.47 28.9168 65.6772 29.0763C65.9541 29.3179 66.1507 29.638 66.2407 29.994C66.3306 30.35 66.3097 30.7249 66.1807 31.0687C66.0517 31.4125 65.8207 31.7089 65.5186 31.9182C65.2165 32.1276 64.8576 32.2401 64.4898 32.2406C64.1769 32.2508 63.8671 32.1751 63.5944 32.0217C63.3216 31.8683 63.0963 31.6431 62.9429 31.3707C62.6126 30.8319 62.4496 30.2076 62.4744 29.5765H57.5614V30.2833C57.5221 31.1476 57.6847 32.0091 58.0363 32.7998C58.388 33.5906 58.9191 34.2888 59.5876 34.8394C61.0054 35.9119 62.7567 36.4509 64.5333 36.3617C66.2514 36.4543 67.9475 35.9425 69.3265 34.9155C69.9756 34.3724 70.4888 33.6856 70.8254 32.9098C71.162 32.134 71.3127 31.2905 71.2656 30.4464Z" fill="#EC2229"/>
<path d="M58.9346 30.9466C58.9729 31.5001 59.1253 32.0397 59.3821 32.5318C59.6389 33.0238 59.9946 33.4577 60.427 33.8064C61.6115 34.6796 63.0635 35.114 64.5339 35.0351C65.9457 35.1175 67.3427 34.7103 68.4883 33.8825C68.9833 33.4637 69.3725 32.9343 69.6242 32.3373C69.8759 31.7403 69.9831 31.0925 69.9371 30.4464C69.9725 29.5082 69.6359 28.5939 69.0003 27.9019C68.65 27.561 68.2584 27.2651 67.8346 27.0211C67.3096 26.7023 66.7636 26.4189 66.2006 26.173L64.1635 25.2596C63.2079 24.9048 62.3756 24.2817 61.7669 23.4654C61.51 23.0133 61.379 22.501 61.3872 21.9813C61.3955 21.4617 61.5428 20.9537 61.814 20.5101C62.0851 20.0664 62.4702 19.7032 62.9292 19.458C63.3883 19.2129 63.9047 19.0948 64.4249 19.1159C65.0308 19.1022 65.6256 19.2784 66.1259 19.6197C66.6261 19.9611 67.0066 20.4504 67.2137 21.0188H69.5667C69.4249 20.4234 69.1534 19.8665 68.7715 19.3877C68.2768 18.821 67.6475 18.3873 66.9414 18.1264C66.1882 17.833 65.3859 17.6854 64.5775 17.6914C63.2081 17.6524 61.8665 18.0821 60.7756 18.9093C60.268 19.2546 59.8548 19.7208 59.5733 20.2657C59.2918 20.8107 59.1509 21.4171 59.1633 22.03C59.1505 22.5064 59.2347 22.9804 59.4107 23.4234C59.5867 23.8663 59.8509 24.269 60.1873 24.6071C60.5591 24.9602 60.9725 25.2669 61.4183 25.5205C61.943 25.8275 62.4891 26.0964 63.0524 26.3252L65.5906 27.4126C65.9167 27.5646 66.2238 27.7544 66.5056 27.978C67.0068 28.3904 67.368 28.9474 67.5395 29.5727C67.7111 30.1981 67.6847 30.861 67.464 31.4708C67.2433 32.0806 66.839 32.6072 66.3067 32.9787C65.7743 33.3501 65.1398 33.548 64.4903 33.5454C63.957 33.5547 63.4304 33.4252 62.9625 33.1698C62.4945 32.9143 62.1012 32.5416 61.8214 32.0883C61.5898 31.7248 61.4136 31.3291 61.2985 30.9139L58.9346 30.9466Z" fill="#EC2229"/>
<path d="M79.8934 27.9998C80.4174 27.8981 80.95 27.8471 81.4839 27.8476H81.9087H82.3227L84.4469 28.0216C84.4226 27.8066 84.3539 27.599 84.2451 27.4118C84.1364 27.2247 83.99 27.0621 83.8151 26.9342C83.3294 26.6032 82.7458 26.4461 82.1593 26.4884H81.8543C81.7383 26.4784 81.6216 26.4784 81.5057 26.4884L79.12 26.7711C79.4577 26.0099 79.8172 25.1944 80.2093 24.3354C80.6015 23.4764 80.9719 22.5303 81.364 21.4973L83.9131 21.2472C85.2094 21.2175 86.5036 21.3675 87.7586 21.6931C87.7586 21.0841 87.3119 20.6057 86.4296 20.2142C85.3426 19.814 84.1888 19.6257 83.0308 19.6597C82.1052 19.6554 81.1805 19.7171 80.2638 19.8445C79.5183 19.9375 78.7867 20.12 78.0851 20.3882C77.563 20.585 77.088 20.8888 76.6907 21.2799C76.3739 21.6017 76.1977 22.0357 76.2005 22.4868C76.1897 22.5553 76.1897 22.625 76.2005 22.6934V23.0414C76.8339 22.6074 77.5227 22.2599 78.2485 22.0084C77.9771 22.7821 77.6644 23.5407 77.3116 24.281C76.8432 25.3031 76.2223 26.608 75.427 28.1847C74.5412 29.7986 73.9718 31.5664 73.7494 33.3932C73.7433 33.6971 73.8067 33.9983 73.9346 34.274C74.0423 34.5441 74.2056 34.7886 74.4139 34.9917C74.6162 35.191 74.8523 35.353 75.1111 35.4701C75.3748 35.5893 75.6605 35.6523 75.9499 35.655C76.3593 33.0878 77.2224 30.6136 78.499 28.3478C78.9239 28.2173 79.3923 28.1086 79.8934 27.9998Z" fill="#EC2229"/>
<path d="M77.3877 27.4453C77.1807 27.8803 76.9411 28.3478 76.6905 28.848C75.9318 30.2074 75.3845 31.674 75.0674 33.1975C75.5497 31.4515 76.2218 29.7632 77.0718 28.163L77.3877 27.4453ZM79.9586 21.3125L79.7625 21.9541L80.0131 21.3125H79.9586Z" fill="#EC2229"/>
<path d="M89.9598 24.1831C90.1518 24.1887 90.3428 24.1528 90.5196 24.0777C90.6964 24.0026 90.8547 23.8902 90.9838 23.7481C91.1199 23.6026 91.2256 23.4315 91.2948 23.2448C91.364 23.0582 91.3953 22.8596 91.3869 22.6607C91.3869 21.8017 90.9293 21.3776 90.036 21.3776C89.8502 21.3745 89.6658 21.4107 89.4949 21.4838C89.3241 21.5569 89.1707 21.6652 89.0447 21.8017C88.9062 21.946 88.7981 22.1166 88.727 22.3034C88.6559 22.4902 88.6232 22.6894 88.6308 22.8891C88.6063 23.0676 88.6241 23.2494 88.6828 23.4198C88.7414 23.5903 88.8393 23.7446 88.9686 23.8704C89.0978 23.9963 89.2548 24.0901 89.4269 24.1444C89.5991 24.1987 89.7816 24.2119 89.9598 24.1831Z" fill="#EC2229"/>
<path d="M87.2904 25.5859L85.286 29.3374C84.5852 30.424 84.1385 31.6542 83.9788 32.9366C83.9745 33.254 84.0223 33.5699 84.1204 33.8718C84.205 34.1547 84.3337 34.4225 84.5017 34.6655C84.6586 34.8878 84.8587 35.0764 85.0899 35.2201C85.3154 35.3491 85.5708 35.4166 85.8307 35.4158V35.2092C85.9615 33.5763 86.5172 32.0058 87.443 30.6531L88.663 28.7285C88.9512 28.2923 89.1408 27.7989 89.2186 27.2823C89.2186 26.1514 88.5759 25.5859 87.2904 25.5859Z" fill="#EC2229"/>
<path d="M87.8349 27.3804L87.2793 28.4677L87.519 28.098C87.6431 27.8675 87.7487 27.6275 87.8349 27.3804Z" fill="#EC2229"/>
<path d="M97.6281 30.2834C98.1538 28.8531 98.8371 27.4855 99.6652 26.2057C98.8056 25.6198 97.7732 25.3402 96.7348 25.4119C95.6821 25.412 94.6404 25.6266 93.6737 26.0426C92.73 26.452 91.8583 27.01 91.0919 27.6954C90.3637 28.36 89.7589 29.1478 89.3053 30.0224C88.8763 30.8495 88.6487 31.766 88.6408 32.6974C88.6408 33.9478 89.1202 34.5676 90.057 34.5676C91.8654 34.5676 93.4558 33.4041 94.8284 31.0554L93.739 33.589C93.4153 34.3789 93.0518 35.1519 92.6497 35.9051C92.3527 36.4733 91.9868 37.0028 91.5603 37.4818C91.2105 37.8695 90.7839 38.1805 90.3076 38.3952C89.8272 38.6056 89.3069 38.7094 88.7825 38.6997C88.3583 38.7107 87.9419 38.5849 87.5951 38.3408C87.4568 38.2509 87.3408 38.1307 87.2559 37.9894C87.171 37.8481 87.1193 37.6894 87.1048 37.5253C86.8541 37.5656 86.6288 37.7015 86.4764 37.9043C86.324 38.1072 86.2564 38.3611 86.2878 38.6127C86.2964 38.8102 86.3587 39.0016 86.4681 39.1664C86.5775 39.3311 86.7299 39.463 86.9088 39.5478C87.3755 39.8024 87.9024 39.9264 88.4339 39.9067C89.9269 39.9487 91.3962 39.527 92.6388 38.6997C93.9741 37.6623 95.0299 36.3096 95.7108 34.7634L97.6281 30.2834ZM94.665 30.0876C93.5756 31.5012 92.7259 32.208 92.007 32.208C91.7564 32.208 91.6257 32.0449 91.6257 31.7296C91.7151 30.5159 92.21 29.3672 93.031 28.4674C93.431 27.8707 93.9634 27.3739 94.5868 27.0156C95.2102 26.6573 95.9079 26.4471 96.6259 26.4014L97.2032 26.4667L95.9287 28.1739L94.665 30.0876Z" fill="#EC2229"/>
<path d="M90.0898 33.187C90.3703 33.18 90.6487 33.1362 90.9177 33.0565C90.7244 32.8833 90.5716 32.6699 90.4699 32.4313C90.3683 32.1926 90.3204 31.9347 90.3295 31.6756C90.3343 31.4022 90.3598 31.1296 90.4057 30.86C90.1538 31.4209 90.0239 32.0287 90.0244 32.6433C90.0154 32.8269 90.0375 33.0108 90.0898 33.187ZM95.5366 31.1971L95.8198 31.3385L96.3318 30.1206L95.8525 30.7948C95.6455 30.9361 95.5366 31.0775 95.4386 31.1971H95.5366Z" fill="#EC2229"/>
<path d="M104.252 33.2193C104.23 33.8207 104.406 34.4128 104.753 34.9047C104.901 35.1148 105.099 35.2851 105.329 35.4008C105.559 35.5165 105.814 35.5739 106.071 35.568C106.205 34.8299 106.394 34.103 106.638 33.3933C106.946 32.505 107.31 31.637 107.727 30.7944C108.343 29.6352 108.731 28.3693 108.871 27.0647C108.871 26.0317 108.457 25.5207 107.607 25.5207C105.919 25.5207 104.165 26.7277 102.346 29.1634C102.531 28.7937 102.781 28.3696 103.086 27.8694C103.391 27.3692 103.74 26.8364 104.176 26.2818C104.612 25.7273 104.949 25.1944 105.363 24.5638C105.777 23.9331 106.18 23.4764 106.594 22.911C107.008 22.3455 107.378 21.9106 107.749 21.4647C108.119 21.0189 108.468 20.6492 108.762 20.3774C108.599 20.196 108.396 20.0546 108.169 19.9641C107.943 19.8736 107.698 19.8364 107.455 19.8554C107.003 19.8576 106.558 19.9696 106.158 20.1816C105.651 20.4671 105.195 20.8346 104.808 21.269C104.202 21.8985 103.652 22.5788 103.163 23.3024C102.596 24.1614 101.953 25.2271 101.224 26.5645C99.4262 29.7071 98.5329 31.8601 98.5329 32.991C98.5217 33.448 98.6551 33.897 98.9142 34.2741C99.0388 34.443 99.2037 34.5781 99.394 34.6674C99.5842 34.7566 99.7937 34.7971 100.004 34.7851C100.2 34.2445 100.433 33.7177 100.701 33.2084C100.995 32.6539 101.322 32.121 101.67 31.5665C102.004 31.0349 102.367 30.523 102.76 30.0333C103.152 29.544 103.533 29.1199 103.849 28.7393C104.179 28.4006 104.544 28.098 104.938 27.8368C105.176 27.6483 105.464 27.5347 105.766 27.5106C105.806 27.5052 105.847 27.5091 105.885 27.5219C105.923 27.5348 105.958 27.5562 105.986 27.5846C106.015 27.6131 106.036 27.6477 106.049 27.6857C106.062 27.7238 106.066 27.7643 106.06 27.8042C105.883 28.6276 105.582 29.4195 105.167 30.1529C104.654 31.1014 104.343 32.1452 104.252 33.2193Z" fill="#EC2229"/>
<path d="M101.495 28.7939C101.103 29.5551 100.798 30.1749 100.569 30.686C100.929 30.1532 101.31 29.5986 101.659 29.131L101.768 29.0005L101.495 28.7939ZM107.16 26.9019C107.31 27.1593 107.389 27.452 107.389 27.75C107.394 27.8079 107.394 27.8661 107.389 27.924C107.469 27.6478 107.516 27.3631 107.53 27.0759C107.537 27.0035 107.537 26.9307 107.53 26.8584L107.16 26.9019Z" fill="#EC2229"/>
<path d="M116.322 26.8908C116.46 26.8943 116.596 26.8645 116.719 26.8039C116.843 26.7433 116.949 26.6537 117.03 26.5428C117.209 26.3255 117.306 26.0521 117.303 25.7708H115.244C115.58 25.3002 115.944 24.85 116.333 24.4225C116.649 24.0639 116.987 23.7261 117.346 23.4112C116.932 23.0942 116.418 22.936 115.898 22.9654C115.527 22.9558 115.157 23.0148 114.808 23.1393C114.493 23.2708 114.205 23.4587 113.958 23.6939C113.669 23.955 113.413 24.2509 113.196 24.5747C112.956 24.9226 112.695 25.325 112.422 25.7708H111.181C111.043 25.7696 110.907 25.8028 110.785 25.8674C110.663 25.9319 110.56 26.0258 110.483 26.1405C110.308 26.3524 110.209 26.6163 110.2 26.8908H111.736C110.674 28.5459 110.031 30.4343 109.862 32.3929C109.822 33.0739 110.023 33.7473 110.429 34.2959C110.613 34.5201 110.846 34.6988 111.111 34.8176C111.375 34.9365 111.664 34.9924 111.954 34.9809C111.948 34.9049 111.948 34.8285 111.954 34.7526V34.4916C111.96 33.9173 112.026 33.3452 112.15 32.7844C112.286 32.1332 112.461 31.4905 112.673 30.8597C112.901 30.1737 113.17 29.5019 113.479 28.8481C113.806 28.1739 114.155 27.5215 114.569 26.8908H116.322Z" fill="#EC2229"/>
<path d="M114.645 32.8172C114.629 33.0858 114.673 33.3545 114.772 33.6044C114.872 33.8543 115.026 34.0792 115.222 34.2634C115.673 34.6446 116.255 34.8357 116.845 34.7962C117.517 34.7997 118.187 34.7194 118.839 34.557C119.438 34.4079 120.016 34.1851 120.56 33.8937C121.017 33.6447 121.426 33.3171 121.769 32.926C122.054 32.5876 122.212 32.1609 122.216 31.719C122.226 31.4345 122.125 31.1574 121.933 30.9469C120.625 32.8172 119.394 33.7524 118.24 33.7524C117.793 33.7524 117.575 33.5023 117.575 33.0021C117.64 32.1191 117.908 31.2631 118.359 30.5011C119.137 30.4418 119.905 30.2922 120.647 30.0553C121.294 29.8608 121.911 29.5752 122.477 29.2071C122.949 28.8969 123.356 28.4981 123.676 28.0327C123.958 27.6391 124.114 27.1687 124.122 26.6844C124.122 25.8906 123.686 25.4883 122.815 25.4883C120.815 25.5926 118.922 26.4197 117.488 27.8153C115.592 29.4355 114.645 31.11 114.645 32.8172ZM119.841 28.3372C120.123 28.0003 120.425 27.6808 120.745 27.3803C121.251 26.8911 121.907 26.5849 122.608 26.5104C122.659 26.5059 122.711 26.5117 122.761 26.5273C122.81 26.543 122.856 26.5682 122.895 26.6016C122.935 26.6349 122.967 26.6758 122.991 26.7217C123.014 26.7676 123.029 26.8178 123.033 26.8693C122.998 27.2032 122.861 27.5184 122.641 27.7718C122.389 28.0778 122.087 28.3389 121.747 28.5438C121.35 28.7866 120.926 28.9836 120.484 29.131C120.008 29.296 119.514 29.4054 119.013 29.4572C119.285 29.0658 119.558 28.6852 119.841 28.3372Z" fill="#EC2229"/>
<path d="M116.442 31.0774C116.142 31.6089 115.981 32.2072 115.974 32.8172C115.974 33.1543 116.072 33.2413 116.126 33.2848C116.167 33.3224 116.216 33.3519 116.268 33.3718C116.268 33.2522 116.268 33.1326 116.268 33.0021C116.283 32.3343 116.419 31.6747 116.671 31.0557L116.442 31.0774Z" fill="#EC2229"/>
<path d="M131.802 25.4881C130.876 25.6616 130.051 26.1783 129.492 26.9343L127.314 29.4353C127.882 28.6841 128.222 27.7859 128.294 26.8473C128.294 25.7599 127.684 25.3032 126.453 25.3032C126.286 25.9397 126.067 26.5615 125.799 27.1626C125.483 27.8912 125.08 28.7393 124.579 29.6962C123.942 30.7213 123.506 31.8578 123.294 33.0454C123.263 33.5536 123.418 34.0557 123.73 34.459C123.863 34.6182 124.029 34.7465 124.218 34.8347C124.406 34.923 124.611 34.9692 124.819 34.97C125.059 34.1556 125.399 33.3739 125.832 32.643C126.284 31.8547 126.802 31.1054 127.379 30.403C127.884 29.7762 128.458 29.2072 129.089 28.7067C129.491 28.3251 130.008 28.0879 130.56 28.0325C130.689 28.0143 130.821 28.0227 130.947 28.0572C131.073 28.0916 131.191 28.1514 131.293 28.2329C131.395 28.3143 131.479 28.4157 131.54 28.5309C131.602 28.646 131.639 28.7725 131.649 28.9024C132.052 28.7393 132.392 28.4518 132.619 28.082C132.847 27.7123 132.949 27.2796 132.913 26.8473C133 25.9339 132.575 25.4881 131.802 25.4881Z" fill="#EC2229"/>
<path d="M126.497 28.8916C126.29 29.3266 126.05 29.7941 125.789 30.2943C125.789 30.3704 125.712 30.4357 125.68 30.5118C125.919 30.1747 126.17 29.8376 126.431 29.5332C126.693 29.2287 126.671 29.2396 126.791 29.1091L126.497 28.8916Z" fill="#EC2229"/>
<path d="M12.6367 36.003V16.7129H17.5715V36.003H12.6367Z" fill="#EC2229"/>
<path d="M21.0684 36.003V16.7129H31.7986V21.0624H25.818V24.0636H31.6243V28.4131H25.818V31.6752H31.8203V36.0247L21.0684 36.003Z" fill="#EC2229"/>
<path d="M34.9688 36.003V16.7129H39.9036V31.6752H45.6227V36.0247L34.9688 36.003Z" fill="#EC2229"/>
<path d="M52.8998 21.0409V36.0033H47.965V21.0409H44.1631V16.6914H56.6907V21.0409H52.8998Z" fill="#EC2229"/>
<path d="M69.3265 34.9158C67.9475 35.9428 66.2514 36.4546 64.5333 36.362C62.7567 36.4512 61.0054 35.9122 59.5876 34.8397C58.9191 34.2891 58.388 33.5909 58.0363 32.8001C57.6847 32.0094 57.5221 31.1479 57.5614 30.2836V29.6529H62.4744C62.4644 30.2583 62.6269 30.8541 62.9429 31.371C63.1005 31.6374 63.3277 31.856 63.6002 32.0034C63.8726 32.1509 64.1801 32.2217 64.4898 32.2083C64.868 32.223 65.2413 32.1188 65.5571 31.9105C65.8729 31.7022 66.1152 31.4002 66.2499 31.0472C66.3847 30.6941 66.405 30.3077 66.3081 29.9425C66.2113 29.5773 66.002 29.2516 65.7098 29.0114C65.5027 28.8519 65.2801 28.7134 65.0453 28.5982L64.6749 28.4242L62.5725 27.5217C61.9548 27.2673 61.3544 26.9731 60.775 26.6409C60.2332 26.3381 59.7287 25.9732 59.2717 25.5535C58.8118 25.0928 58.4494 24.5444 58.2061 23.941C57.9628 23.3376 57.8436 22.6916 57.8556 22.0413C57.8495 21.2191 58.0448 20.4079 58.4245 19.6782C58.8043 18.9486 59.3569 18.3226 60.0343 17.8549C61.36 16.8577 62.9826 16.3331 64.6423 16.3652C65.6186 16.3642 66.5865 16.5448 67.4964 16.898C68.414 17.242 69.2305 17.8103 69.8712 18.5508C70.7027 19.6455 71.1506 20.9828 71.1458 22.3566H66.2327C66.0475 21.1061 65.4593 20.4754 64.4571 20.4754C63.4549 20.4754 62.7686 20.9756 62.7686 21.9869C62.7489 22.2697 62.8093 22.5523 62.9429 22.8024C63.4233 23.3503 64.0338 23.7691 64.7185 24.0203L66.7556 24.9446C67.3704 25.214 67.9672 25.5227 68.5422 25.8688C69.0597 26.173 69.5389 26.5381 69.9692 26.9562C70.8391 27.8944 71.3047 29.1363 71.2656 30.4141C71.3179 31.2636 71.1697 32.1135 70.833 32.8954C70.4962 33.6773 69.9802 34.3693 69.3265 34.9158Z" fill="#EC2229"/>
<path d="M86.4081 20.2904C87.2905 20.671 87.7371 21.1603 87.7371 21.7692C86.4821 21.4437 85.188 21.2936 83.8917 21.3234L81.3752 21.5843C80.9831 22.6174 80.5909 23.5634 80.2205 24.4224C79.8501 25.2814 79.4907 26.097 79.1312 26.8581L81.5169 26.5754C81.6328 26.5655 81.7495 26.5655 81.8654 26.5754H82.1705C82.757 26.5331 83.3406 26.6902 83.8263 27.0212C84.0012 27.1491 84.1476 27.3117 84.2563 27.4989C84.3651 27.686 84.4338 27.8936 84.4581 28.1086L82.3339 27.9346H81.9199H81.4951C80.9612 27.9342 80.4286 27.9851 79.9046 28.0869C79.4035 28.1956 78.9351 28.3043 78.4884 28.4348C77.2177 30.6732 76.3511 33.1171 75.9284 35.655C75.639 35.6523 75.3533 35.5894 75.0896 35.4702C74.8308 35.353 74.5947 35.191 74.3924 34.9917C74.1841 34.7886 74.0208 34.5441 73.9131 34.2741C73.7852 33.9983 73.7219 33.6971 73.7279 33.3933C73.9901 31.586 74.5926 29.8445 75.5036 28.2609C76.2879 26.6842 76.9198 25.3793 77.3882 24.3572C77.741 23.6169 78.0537 22.8583 78.325 22.0845C77.5992 22.3361 76.9104 22.6835 76.277 23.1176V22.7696C76.2662 22.7011 76.2662 22.6314 76.277 22.563C76.2742 22.1118 76.4505 21.6779 76.7672 21.356C77.1517 20.9829 77.6073 20.6907 78.1072 20.497C78.8088 20.2288 79.5404 20.0462 80.2859 19.9533C81.2026 19.8259 82.1273 19.7641 83.0529 19.7684C84.1942 19.7296 85.3327 19.9067 86.4081 20.2904Z" fill="#EC2229"/>
<path d="M89.2186 27.2825C89.1408 27.7991 88.9512 28.2926 88.663 28.7288L87.443 30.6534C86.5172 32.0061 85.9615 33.5766 85.8307 35.2095V35.4161C85.5708 35.4169 85.3154 35.3494 85.0899 35.2204C84.8587 35.0767 84.6586 34.8881 84.5017 34.6658C84.3337 34.4228 84.205 34.155 84.1204 33.8721C84.0223 33.5702 83.9745 33.2543 83.9788 32.9369C84.1385 31.6545 84.5852 30.4243 85.286 29.3377L87.2904 25.5862C88.5759 25.5862 89.2186 26.1517 89.2186 27.2825ZM88.6304 22.933C88.6228 22.7333 88.6555 22.5341 88.7266 22.3473C88.7977 22.1605 88.9058 21.9899 89.0443 21.8456C89.1703 21.7092 89.3237 21.6009 89.4945 21.5278C89.6654 21.4547 89.8498 21.4185 90.0356 21.4216C90.9289 21.4216 91.3864 21.8456 91.3864 22.7047C91.3949 22.9035 91.3636 23.1021 91.2944 23.2888C91.2252 23.4755 91.1195 23.6465 90.9834 23.7921C90.8543 23.9341 90.696 24.0466 90.5192 24.1217C90.3424 24.1968 90.1514 24.2327 89.9594 24.227C89.778 24.2572 89.5921 24.2438 89.417 24.1878C89.242 24.1318 89.0828 24.0349 88.9528 23.9051C88.8228 23.7754 88.7258 23.6165 88.6697 23.4418C88.6136 23.267 88.6001 23.0814 88.6304 22.9004V22.933Z" fill="#EC2229"/>
<path d="M96.7352 25.3577C97.7736 25.286 98.8059 25.5656 99.6655 26.1515C98.8338 27.4484 98.1505 28.8345 97.6284 30.2835L95.7547 34.7853C95.0738 36.3315 94.0181 37.6843 92.6827 38.7216C91.4401 39.5489 89.9708 39.9706 88.4778 39.9286C87.9463 39.9483 87.4194 39.8243 86.9527 39.5698C86.7738 39.4849 86.6215 39.3531 86.5121 39.1883C86.4027 39.0235 86.3403 38.8321 86.3318 38.6346C86.3003 38.383 86.3679 38.1291 86.5203 37.9262C86.6727 37.7234 86.898 37.5875 87.1488 37.5472C87.1633 37.7114 87.2149 37.87 87.2998 38.0113C87.3847 38.1526 87.5007 38.2728 87.639 38.3628C87.9858 38.6068 88.4022 38.7326 88.8264 38.7216C89.3508 38.7314 89.8712 38.6275 90.3515 38.4171C90.8279 38.2024 91.2544 37.8914 91.6043 37.5037C92.0308 37.0247 92.3966 36.4952 92.6936 35.927C93.0957 35.1739 93.4593 34.4008 93.783 33.6109L94.8723 31.0773C93.4998 33.4261 91.9093 34.5896 90.101 34.5896C89.1641 34.5896 88.6848 33.9698 88.6848 32.7193C88.6926 31.7879 88.9203 30.8714 89.3493 30.0443C89.8029 29.1697 90.4077 28.3819 91.1358 27.7173C91.9022 27.0319 92.7739 26.4739 93.7176 26.0645C94.6654 25.6281 95.6918 25.3877 96.7352 25.3577ZM93.0313 28.3698C92.2103 29.2695 91.7155 30.4182 91.6261 31.6319C91.6261 31.9472 91.7568 32.1103 92.0073 32.1103C92.7263 32.1103 93.6087 31.4035 94.6654 29.9899L95.9726 28.1305L97.2472 26.4233L96.6698 26.3581C95.9528 26.3861 95.2519 26.5781 94.621 26.9194C93.9902 27.2606 93.4463 27.7419 93.0313 28.3263V28.3698Z" fill="#EC2229"/>
<path d="M108.685 20.3668C108.395 20.6568 108.057 21.0192 107.672 21.4542C107.302 21.9 106.921 22.3784 106.518 22.9004C106.115 23.4223 105.701 23.9878 105.287 24.5532C104.873 25.1186 104.47 25.7058 104.099 26.2713C103.729 26.8367 103.369 27.3586 103.01 27.8588C102.65 28.359 102.454 28.7831 102.269 29.1528C104.088 26.7171 105.842 25.5101 107.531 25.5101C108.38 25.5101 108.794 26.0212 108.794 27.0542C108.654 28.3587 108.266 29.6246 107.651 30.7839C107.233 31.6264 106.869 32.4944 106.561 33.3827C106.318 34.0924 106.129 34.8194 105.995 35.5575C105.737 35.5634 105.483 35.5059 105.253 35.3902C105.023 35.2746 104.825 35.1042 104.677 34.8942C104.359 34.396 104.21 33.8088 104.252 33.2196C104.332 32.1277 104.64 31.0647 105.156 30.0988C105.571 29.3654 105.872 28.5735 106.049 27.7501C106.055 27.7103 106.051 27.6697 106.038 27.6317C106.025 27.5936 106.003 27.559 105.975 27.5306C105.947 27.5022 105.912 27.4807 105.874 27.4678C105.836 27.455 105.795 27.4511 105.755 27.4565C105.453 27.4806 105.165 27.5942 104.927 27.7827C104.533 28.044 104.168 28.3465 103.838 28.6852C103.467 29.0658 103.086 29.4899 102.748 29.9792C102.356 30.469 101.992 30.9809 101.659 31.5124C101.311 32.0452 100.984 32.5998 100.69 33.1544C100.422 33.6636 100.189 34.1904 99.9924 34.7311C99.7813 34.7438 99.5705 34.7026 99.3798 34.6113C99.1892 34.5199 99.0251 34.3815 98.903 34.2091C98.6399 33.8381 98.5059 33.3912 98.5218 32.9369C98.5218 31.8495 99.415 29.6747 101.212 26.5105C101.942 25.2274 102.585 24.1617 103.152 23.2483C103.612 22.5243 104.133 21.8405 104.709 21.2041C105.096 20.7696 105.553 20.4022 106.06 20.1167C106.459 19.9046 106.904 19.7927 107.356 19.7905C107.6 19.7715 107.844 19.8087 108.071 19.8992C108.298 19.9897 108.501 20.1311 108.664 20.3124L108.685 20.3668Z" fill="#EC2229"/>
<path d="M116.321 26.8908H114.491C114.11 27.5215 113.761 28.1739 113.402 28.8481C113.093 29.5019 112.824 30.1737 112.596 30.8597C112.384 31.4905 112.209 32.1332 112.073 32.7844C111.949 33.3452 111.883 33.9173 111.877 34.4916V34.7526C111.87 34.8285 111.87 34.9049 111.877 34.9809C111.587 34.9924 111.298 34.9365 111.034 34.8176C110.769 34.6988 110.535 34.5201 110.352 34.2959C109.946 33.7473 109.745 33.0739 109.785 32.3929C109.953 30.4343 110.596 28.5459 111.659 26.8908H110.123C110.132 26.6163 110.231 26.3524 110.406 26.1405C110.482 26.0258 110.586 25.9319 110.708 25.8674C110.83 25.8028 110.966 25.7696 111.103 25.7708H112.345C112.618 25.325 112.879 24.9226 113.119 24.5747C113.336 24.2509 113.592 23.955 113.881 23.6939C114.128 23.4587 114.416 23.2708 114.731 23.1393C115.08 23.0148 115.45 22.9558 115.82 22.9654C116.341 22.936 116.855 23.0942 117.269 23.4112C116.91 23.7261 116.572 24.0639 116.256 24.4225C115.867 24.85 115.503 25.3002 115.167 25.7708H117.324C117.327 26.0521 117.23 26.3255 117.051 26.5428C116.97 26.6537 116.864 26.7433 116.74 26.8039C116.617 26.8645 116.481 26.8943 116.343 26.8908H116.321Z" fill="#EC2229"/>
<path d="M114.644 32.8172C114.644 31.11 115.592 29.4355 117.488 27.8153C118.91 26.4293 120.786 25.6029 122.771 25.4883C123.642 25.4883 124.078 25.8906 124.078 26.6844C124.07 27.1687 123.914 27.6391 123.632 28.0327C123.312 28.4981 122.905 28.8969 122.433 29.2071C121.867 29.5752 121.25 29.8608 120.603 30.0553C119.861 30.2922 119.093 30.4418 118.315 30.5011C117.864 31.2631 117.596 32.1191 117.531 33.0021C117.531 33.5023 117.749 33.7524 118.196 33.7524C119.35 33.7524 120.581 32.8172 121.889 30.9469C122.081 31.1574 122.182 31.4345 122.172 31.719C122.168 32.1609 122.01 32.5876 121.725 32.926C121.382 33.3171 120.973 33.6447 120.516 33.8937C119.972 34.1851 119.394 34.4079 118.795 34.557C118.143 34.7194 117.473 34.7997 116.801 34.7962C116.211 34.8357 115.629 34.6446 115.178 34.2634C114.982 34.0792 114.828 33.8543 114.728 33.6044C114.629 33.3545 114.585 33.0858 114.601 32.8172H114.644ZM120.745 27.3803C120.424 27.6808 120.122 28.0003 119.841 28.3372C119.557 28.6852 119.285 29.0658 119.013 29.4246C119.514 29.3728 120.007 29.2633 120.483 29.0984C120.925 28.951 121.349 28.754 121.747 28.5112C122.086 28.3063 122.389 28.0452 122.64 27.7392C122.861 27.4858 122.998 27.1706 123.032 26.8366C123.028 26.7852 123.014 26.735 122.99 26.6891C122.967 26.6431 122.934 26.6023 122.895 26.569C122.855 26.5356 122.81 26.5104 122.76 26.4947C122.711 26.4791 122.659 26.4733 122.608 26.4778C121.903 26.5612 121.246 26.8791 120.745 27.3803Z" fill="#EC2229"/>
<path d="M129.492 26.9346C130.051 26.1785 130.876 25.6618 131.801 25.4883C132.597 25.4883 133 25.9342 133 26.8258C133.036 27.2581 132.933 27.6908 132.706 28.0605C132.479 28.4303 132.139 28.7178 131.736 28.881C131.726 28.751 131.688 28.6245 131.627 28.5094C131.566 28.3942 131.482 28.2928 131.38 28.2114C131.277 28.1299 131.16 28.0701 131.034 28.0357C130.908 28.0012 130.776 27.9928 130.647 28.0111C130.095 28.0664 129.578 28.3036 129.176 28.6852C128.545 29.1858 127.971 29.7547 127.466 30.3815C126.889 31.0839 126.371 31.8332 125.919 32.6215C125.486 33.3525 125.146 34.1341 124.906 34.9485C124.698 34.9477 124.493 34.9015 124.305 34.8133C124.116 34.725 123.95 34.5967 123.816 34.4375C123.505 34.0342 123.35 33.5321 123.381 33.0239C123.593 31.8363 124.029 30.6998 124.666 29.6747C125.167 28.7179 125.57 27.8697 125.886 27.1412C126.154 26.54 126.373 25.9182 126.54 25.2817C127.771 25.2817 128.381 25.7928 128.381 26.8258C128.309 27.7644 127.969 28.6626 127.4 29.4138L129.579 26.9128L129.492 26.9346Z" fill="#EC2229"/>
<path d="M25.2846 0.337254C24.2498 0.337254 23.2149 0.337255 22.1909 0.456866L20.644 0.598227C20.132 0.663469 19.62 0.706963 19.1189 0.793953C18.6178 0.880943 18.0949 0.935314 17.5938 1.03318L16.0796 1.30502L14.5871 1.64211C14.086 1.75085 13.5958 1.90308 13.1056 2.02269L12.3648 2.21842L11.6567 2.44677C11.1665 2.599 10.6763 2.74036 10.197 2.90347L8.76994 3.42541C8.29062 3.58852 7.83309 3.81687 7.35377 4.00172C6.87445 4.18658 6.41692 4.37143 5.95939 4.59978L4.5759 5.27395C4.11837 5.49143 3.68263 5.74153 3.23599 5.99162L1.91787 6.73104L2.46255 5.81764C2.46255 7.47046 2.46255 9.07978 2.46255 10.7652V15.7237V25.6406C2.46255 27.2934 2.46255 28.9027 2.46255 30.5881V35.5466V45.4091L1.29693 44.3217C1.92876 44.3217 2.49523 44.3217 3.08348 44.3217C3.67174 44.3217 4.2382 44.4196 4.80467 44.4848C5.37114 44.5501 5.89403 44.6588 6.51496 44.7458L8.21437 45.0829L9.88109 45.507L11.526 46.0289C12.0707 46.2029 12.6154 46.4312 13.1383 46.627C13.6612 46.8227 14.2276 47.0728 14.7179 47.312C15.2081 47.5512 15.7527 47.7905 16.2538 48.0732L17.7463 48.9213L19.1624 49.8782C19.6369 50.1908 20.0916 50.5322 20.5241 50.9004C20.9599 51.2701 21.4174 51.6072 21.8314 51.9877L23.0406 53.173C23.4343 53.5661 23.7984 53.9877 24.1299 54.4343L25.2193 55.7283L23.9774 54.6409L23.3674 54.0755C23.1592 53.8897 22.941 53.7155 22.7138 53.5536L21.461 52.564C21.0144 52.227 20.535 51.9551 20.0775 51.6398C19.6223 51.3266 19.1495 51.0398 18.6613 50.7807L17.2125 49.987L15.7092 49.3128C15.219 49.0736 14.707 48.8887 14.195 48.693C13.683 48.4973 13.171 48.3015 12.6481 48.1493C12.1252 47.9971 11.5587 47.8231 11.0685 47.6926L9.47803 47.3011L7.87667 46.9967L6.26441 46.7575C5.71973 46.7031 5.17505 46.6378 4.64127 46.6052C4.10748 46.5726 3.55191 46.5291 3.01812 46.5291C2.48433 46.5291 1.92876 46.5291 1.44944 46.5291H0.305612V45.4417L0.163996 40.4615L0.0986328 37.9714C0.0986328 37.1341 0.0986328 36.3077 0.0986328 35.4813V30.5229C0.0986328 28.8701 0.0986328 27.2607 0.0986328 25.5644L0.207569 15.6475V10.7108C0.207569 9.05803 0.272932 7.44871 0.338293 5.7524V5.0891L0.850294 4.839L2.29914 4.18658C2.77846 3.95823 3.24688 3.70813 3.7371 3.52327L5.20774 2.90347C5.69795 2.69687 6.19905 2.54463 6.70016 2.35978C7.20126 2.17492 7.69148 2.00095 8.20348 1.87046L9.72858 1.43551C10.2297 1.29415 10.7526 1.18541 11.2646 1.0658L12.0271 0.891817L12.8006 0.750459C13.3235 0.652595 13.8899 0.543857 14.3584 0.489488L15.9161 0.282886L17.4848 0.141528C18.0077 0.141528 18.5742 0.0871588 19.0535 0.0545374C19.5328 0.0219161 20.1429 0.0545374 20.6113 0.0545374C21.0797 0.0545374 21.7006 0.0545374 22.18 0.0545374C23.2258 0.0980326 24.2606 0.185021 25.2846 0.337254Z" fill="#EC2229"/>
<path d="M36.3736 54.282L35.7744 55.6521C35.1927 55.8851 34.5712 56.0033 33.9443 56.0001C32.7554 56.0707 31.5849 55.6813 30.6762 54.9127C30.2692 54.5424 29.9481 54.0878 29.7355 53.5806C29.5228 53.0735 29.4238 52.5261 29.4453 51.9768C29.431 51.4339 29.529 50.894 29.7333 50.3907C29.9376 49.8873 30.2438 49.4315 30.6327 49.0517C31.0281 48.6676 31.4975 48.3675 32.0123 48.1694C32.5272 47.9713 33.077 47.8793 33.6284 47.8991C34.3418 47.9156 35.051 48.0141 35.7418 48.1927V49.5411C35.0851 49.1387 34.3333 48.9173 33.563 48.8995C33.1859 48.8828 32.8094 48.9459 32.4583 49.0846C32.1073 49.2232 31.7895 49.4344 31.5259 49.7042C31.2589 49.976 31.0505 50.2995 30.9138 50.6549C30.777 51.0103 30.7147 51.3898 30.7307 51.7702C30.711 52.632 31.0229 53.4687 31.6022 54.1081C31.8636 54.4113 32.1881 54.6541 32.5531 54.8193C32.9181 54.9846 33.3148 55.0684 33.7155 55.0649C34.652 55.0224 35.564 54.7537 36.3736 54.282Z" fill="#EC2229"/>
<path d="M42.6595 55.8042H40.6877C40.8489 55.7022 40.9804 55.5597 41.069 55.391C41.1368 55.1507 41.1626 54.9006 41.1453 54.6516V52.5638C41.1748 52.2161 41.0989 51.8675 40.9274 51.5634C40.7918 51.3936 40.6167 51.2593 40.4174 51.1722C40.2181 51.085 40.0006 51.0476 39.7836 51.0632C39.5786 51.0557 39.3746 51.0937 39.1862 51.1746C38.9978 51.2555 38.8297 51.3771 38.6942 51.5308C38.6115 51.6246 38.5519 51.7362 38.5199 51.857C38.5029 52.0705 38.5029 52.2851 38.5199 52.4986V54.6733C38.5069 54.9216 38.5289 55.1706 38.5853 55.4127C38.6801 55.5805 38.8148 55.7224 38.9775 55.826H37.0166C37.1711 55.7162 37.301 55.5755 37.3979 55.4127C37.4543 55.1706 37.4763 54.9216 37.4632 54.6733V49.2364C37.4793 48.9881 37.4572 48.7387 37.3979 48.497C37.3025 48.3302 37.1725 48.1856 37.0166 48.0729H37.8009C37.9241 48.0837 38.0481 48.07 38.1659 48.0326C38.2836 47.9953 38.3929 47.9351 38.4872 47.8555V50.9436C38.7018 50.6898 38.9737 50.4904 39.2804 50.3618C39.5872 50.2333 39.9202 50.1793 40.252 50.2042C40.5781 50.1786 40.9053 50.2349 41.2041 50.3678C41.5028 50.5008 41.7634 50.7062 41.9623 50.9654C42.1836 51.3314 42.2863 51.7567 42.2564 52.1832V54.6298C42.2431 54.8746 42.2651 55.1199 42.3218 55.3584C42.3935 55.5338 42.5099 55.6875 42.6595 55.8042Z" fill="#EC2229"/>
<path d="M45.5134 55.8044H43.5635C43.7182 55.6981 43.8452 55.5564 43.9339 55.3912C44.0016 55.1509 44.0274 54.9008 44.0101 54.6518V51.5419C44.0287 51.2928 44.0029 51.0425 43.9339 50.8024C43.8498 50.6311 43.7221 50.4848 43.5635 50.3784H44.3369C44.4602 50.3916 44.5848 50.3792 44.703 50.3417C44.8211 50.3043 44.9302 50.2427 45.0232 50.1609V54.6518C45.0102 54.9001 45.0322 55.149 45.0886 55.3912C45.1943 55.5614 45.3402 55.7033 45.5134 55.8044ZM45.2411 48.9322C45.2441 49.0287 45.2273 49.1247 45.1917 49.2145C45.1561 49.3043 45.1025 49.3858 45.0341 49.4541C44.9662 49.5238 44.8849 49.579 44.795 49.6164C44.7051 49.6538 44.6086 49.6726 44.5112 49.6716C44.4154 49.673 44.3203 49.6544 44.2322 49.617C44.144 49.5795 44.0646 49.524 43.9992 49.4541C43.9294 49.3864 43.8741 49.3052 43.8366 49.2154C43.7992 49.1257 43.7804 49.0293 43.7813 48.9322C43.7799 48.8365 43.7985 48.7416 43.8361 48.6536C43.8736 48.5656 43.9292 48.4864 43.9992 48.4211C44.1418 48.2817 44.3334 48.2036 44.533 48.2036C44.6268 48.2049 44.7194 48.2248 44.8054 48.2622C44.8914 48.2995 44.9692 48.3535 45.0341 48.4211C45.1007 48.4885 45.1532 48.5683 45.1887 48.656C45.2242 48.7437 45.242 48.8376 45.2411 48.9322Z" fill="#EC2229"/>
<path d="M51.9625 54.5648L51.3198 55.6522C50.8009 55.8456 50.2505 55.9414 49.6966 55.9349C48.8222 55.9719 47.9649 55.6854 47.2891 55.1302C47.0011 54.8806 46.771 54.5713 46.6148 54.2239C46.4587 53.8765 46.3802 53.4993 46.385 53.1186C46.38 52.7088 46.463 52.3027 46.6283 51.9275C46.7937 51.5524 47.0376 51.217 47.3436 50.9438C47.8922 50.479 48.5965 50.2382 49.3154 50.2696C49.6665 50.2574 50.0167 50.3145 50.3457 50.4376C50.6747 50.5608 50.9761 50.7476 51.2326 50.9873C51.4813 51.2257 51.6776 51.5132 51.8088 51.8314C51.9401 52.1497 52.0036 52.4918 51.9952 52.8358V53.0207H47.6377C47.6329 53.321 47.6904 53.619 47.8067 53.8959C47.9229 54.1729 48.0954 54.4228 48.3131 54.63C48.776 55.0409 49.3832 55.2521 50.0017 55.2172C50.7072 55.2075 51.3923 54.9795 51.9625 54.5648ZM51.1019 49.6389C50.4464 49.5414 49.8313 49.2626 49.3263 48.8343C48.8422 49.2625 48.2445 49.5419 47.6051 49.6389L49.4134 47.8556L51.1019 49.6389ZM50.7206 52.2487C50.6954 51.8823 50.5273 51.5404 50.2523 51.2964C49.9773 51.0525 49.6175 50.9259 49.25 50.9438C48.8714 50.9195 48.4982 51.0432 48.2095 51.2888C47.9207 51.5344 47.7391 51.8826 47.7031 52.2595L50.7206 52.2487ZM50.7206 46.9966L47.812 48.2797L49.9908 46.2681L50.7206 46.9966Z" fill="#EC2229"/>
<path d="M58.6293 55.8041H56.6684C56.8291 55.6969 56.9602 55.551 57.0497 55.3801C57.1175 55.1435 57.1433 54.897 57.126 54.6515V52.7812C57.1668 52.3685 57.0753 51.9534 56.8645 51.596C56.7226 51.425 56.5418 51.2903 56.3371 51.2033C56.1324 51.1163 55.9099 51.0794 55.688 51.0958C55.4428 51.0968 55.2008 51.1525 54.9799 51.2589C54.7681 51.3547 54.5952 51.5196 54.4897 51.7265C54.4287 51.9009 54.4028 52.0857 54.4135 52.2702V54.6515C54.4004 54.8998 54.4224 55.1487 54.4788 55.3909C54.5723 55.5562 54.7028 55.6976 54.8601 55.8041H52.9102C53.0649 55.6979 53.1919 55.5562 53.2805 55.3909C53.3483 55.1507 53.3741 54.9005 53.3568 54.6515V51.5416C53.3754 51.2926 53.3496 51.0422 53.2805 50.8022C53.1965 50.6309 53.0687 50.4846 52.9102 50.3781H53.6618C53.7868 50.3923 53.9133 50.3802 54.0334 50.3428C54.1534 50.3053 54.2643 50.2433 54.359 50.1606V51.1393C54.562 50.866 54.8241 50.6419 55.1259 50.4838C55.4277 50.3256 55.7613 50.2375 56.102 50.2259C56.4802 50.2297 56.8526 50.3189 57.1913 50.4869C57.5513 50.656 57.8377 50.9495 57.9975 51.3133C58.1166 51.7486 58.1644 52.2002 58.1391 52.6507V54.6515C58.1261 54.8998 58.1481 55.1487 58.2044 55.3909C58.3102 55.5612 58.4561 55.703 58.6293 55.8041Z" fill="#EC2229"/>
<path d="M68.0635 52.9337C68.0747 53.3403 67.9988 53.7446 67.841 54.1196C67.6833 54.4946 67.4471 54.8317 67.1484 55.1084C66.4717 55.6878 65.5988 55.9873 64.7083 55.9457C63.9471 55.9613 63.1867 55.8883 62.4424 55.7282C62.5805 55.645 62.6876 55.519 62.7474 55.3694C62.7726 55.2145 62.7726 55.0567 62.7474 54.9018V49.2257C62.7661 48.9767 62.7402 48.7263 62.6712 48.4863C62.5871 48.3149 62.4594 48.1687 62.3008 48.0622H63.1178C63.3659 48.0792 63.6112 48.0015 63.8041 47.8447V54.9888C64.1321 55.0719 64.4681 55.1193 64.8063 55.1302C65.0728 55.1422 65.3391 55.1013 65.5897 55.0099C65.8403 54.9184 66.0702 54.7782 66.266 54.5973C66.4489 54.4097 66.5908 54.1862 66.6826 53.941C66.7745 53.6958 66.8144 53.4343 66.7998 53.1729C66.8253 52.6315 66.6552 52.099 66.3205 51.6723C66.169 51.4879 65.9775 51.3403 65.7605 51.2404C65.5435 51.1406 65.3066 51.0912 65.0678 51.096C64.7183 51.1069 64.3758 51.1961 64.0655 51.357L64.7083 50.3674C64.9677 50.2777 65.2398 50.2299 65.5144 50.2261C65.8496 50.2201 66.182 50.2871 66.4886 50.4223C66.7953 50.5575 67.0687 50.7577 67.29 51.009C67.7905 51.5246 68.0682 52.2157 68.0635 52.9337Z" fill="#EC2229"/>
<path d="M70.95 55.8044H69C69.1547 55.6982 69.2817 55.5565 69.3704 55.3912C69.4322 55.1499 69.4579 54.9007 69.4466 54.6518V51.5419C69.4596 51.293 69.4339 51.0436 69.3704 50.8025C69.2863 50.6312 69.1586 50.4849 69 50.3784H69.817C69.9403 50.3917 70.0649 50.3792 70.1831 50.3418C70.3012 50.3043 70.4103 50.2427 70.5033 50.1609V54.6518C70.4903 54.9001 70.5123 55.149 70.5687 55.3912C70.6621 55.5565 70.7926 55.6979 70.95 55.8044ZM70.6776 48.9322C70.6807 49.0287 70.6639 49.1248 70.6283 49.2146C70.5927 49.3043 70.539 49.3859 70.4706 49.4541C70.4028 49.5239 70.3214 49.5791 70.2316 49.6165C70.1417 49.6538 70.0451 49.6726 69.9477 49.6716C69.8519 49.6731 69.7569 49.6545 69.6687 49.617C69.5805 49.5796 69.5011 49.5241 69.4357 49.4541C69.3659 49.3864 69.3106 49.3052 69.2731 49.2155C69.2357 49.1258 69.2169 49.0294 69.2179 48.9322C69.2164 48.8366 69.2351 48.7417 69.2726 48.6536C69.3101 48.5656 69.3657 48.4864 69.4357 48.4211C69.5056 48.3511 69.5889 48.2958 69.6806 48.2584C69.7723 48.2211 69.8705 48.2025 69.9695 48.2037C70.0633 48.205 70.1559 48.2249 70.2419 48.2622C70.328 48.2995 70.4057 48.3536 70.4706 48.4211C70.5372 48.4885 70.5897 48.5683 70.6252 48.656C70.6608 48.7438 70.6786 48.8376 70.6776 48.9322Z" fill="#EC2229"/>
<path d="M77.5736 55.8041H75.6128C75.7734 55.6969 75.9045 55.551 75.9941 55.3801C76.0618 55.1435 76.0877 54.897 76.0703 54.6515V52.7812C76.1112 52.3685 76.0196 51.9534 75.8089 51.596C75.667 51.425 75.4861 51.2903 75.2814 51.2033C75.0768 51.1163 74.8542 51.0794 74.6324 51.0958C74.3871 51.0968 74.1452 51.1525 73.9243 51.2589C73.7124 51.3547 73.5395 51.5196 73.4341 51.7265C73.373 51.9009 73.3471 52.0857 73.3578 52.2702V54.6515C73.3448 54.8998 73.3668 55.1487 73.4232 55.3909C73.5166 55.5562 73.6471 55.6976 73.8044 55.8041H71.8545C72.0092 55.6979 72.1362 55.5562 72.2249 55.3909C72.2926 55.1507 72.3184 54.9005 72.3011 54.6515V51.5416C72.3198 51.2926 72.2939 51.0422 72.2249 50.8022C72.1408 50.6309 72.0131 50.4846 71.8545 50.3781H72.6606C72.7856 50.3923 72.9121 50.3802 73.0322 50.3428C73.1522 50.3053 73.2631 50.2433 73.3578 50.1606V51.1393C73.5608 50.866 73.8229 50.6419 74.1247 50.4838C74.4265 50.3256 74.7601 50.2375 75.1008 50.2259C75.479 50.2297 75.8514 50.3189 76.1901 50.4869C76.5501 50.656 76.8365 50.9495 76.9963 51.3133C77.1154 51.7486 77.1632 52.2002 77.1379 52.6507V54.6515C77.1249 54.8998 77.1469 55.1487 77.2033 55.3909C77.2936 55.555 77.4203 55.6964 77.5736 55.8041Z" fill="#EC2229"/>
<path d="M84.1314 55.8042H82.1705C82.3317 55.7022 82.4632 55.5597 82.5518 55.391C82.6196 55.1507 82.6454 54.9006 82.6281 54.6516V52.5638C82.6601 52.2146 82.58 51.8642 82.3993 51.5634C82.2703 51.4 82.1043 51.2695 81.9149 51.1825C81.7255 51.0956 81.5182 51.0547 81.3099 51.0632C81.105 51.0557 80.9009 51.0937 80.7125 51.1746C80.5241 51.2555 80.3561 51.3771 80.2206 51.5308C80.1336 51.6215 80.0733 51.7344 80.0463 51.857C80.0292 52.0705 80.0292 52.2851 80.0463 52.4986V54.6733C80.0333 54.9216 80.0553 55.1706 80.1116 55.4127C80.2064 55.5805 80.3411 55.7224 80.5038 55.826H78.543C78.6977 55.7197 78.8247 55.578 78.9133 55.4127C78.9752 55.1714 79.0009 54.9222 78.9896 54.6733V49.2364C79.0056 48.9881 78.9836 48.7387 78.9242 48.497C78.8289 48.3302 78.6989 48.1856 78.543 48.0729H79.1966C79.3197 48.0837 79.4437 48.07 79.5615 48.0326C79.6793 47.9953 79.7885 47.9351 79.8829 47.8555V50.9436C80.0974 50.6898 80.3693 50.4904 80.6761 50.3618C80.9829 50.2333 81.3159 50.1793 81.6476 50.2042C81.9723 50.1775 82.2984 50.2333 82.5955 50.3664C82.8927 50.4995 83.1512 50.7055 83.347 50.9654C83.5683 51.3314 83.6711 51.7567 83.6412 52.1832V54.6298C83.6279 54.8746 83.6499 55.1199 83.7065 55.3584C83.8051 55.5427 83.9519 55.6968 84.1314 55.8042Z" fill="#EC2229"/>
<path d="M90.2969 55.8041H88.1182C88.2429 55.7395 88.351 55.6469 88.4341 55.5338C88.5173 55.4207 88.5731 55.2899 88.5975 55.1517C88.6167 54.8693 88.6167 54.586 88.5975 54.3036V49.5626C88.6167 49.2802 88.6167 48.9968 88.5975 48.7144C88.5702 48.5773 88.5131 48.4479 88.4303 48.3352C88.3475 48.2225 88.2409 48.1292 88.1182 48.062H90.2969C90.1726 48.1274 90.0649 48.2201 89.9819 48.3331C89.8989 48.4461 89.8427 48.5765 89.8176 48.7144C89.7907 48.9965 89.7907 49.2805 89.8176 49.5626V54.3036C89.7907 54.5856 89.7907 54.8696 89.8176 55.1517C89.8394 55.2908 89.8943 55.4226 89.9777 55.5361C90.0611 55.6496 90.1706 55.7415 90.2969 55.8041Z" fill="#EC2229"/>
<path d="M96.9098 54.2712L96.3543 55.8044H91.4521C91.5769 55.7398 91.685 55.6472 91.7681 55.5341C91.8512 55.421 91.9071 55.2902 91.9315 55.152C91.9506 54.866 91.9506 54.579 91.9315 54.293V49.5629C91.9507 49.2805 91.9507 48.9971 91.9315 48.7147C91.9042 48.5776 91.8471 48.4482 91.7643 48.3355C91.6815 48.2228 91.5749 48.1295 91.4521 48.0623H95.3629C95.5145 48.0661 95.6655 48.0441 95.8096 47.9971V49.3672C95.6267 49.1857 95.4024 49.0514 95.156 48.9757C94.8993 48.9143 94.6353 48.8886 94.3716 48.8996C93.9635 48.8923 93.5555 48.9178 93.1515 48.9757V51.1505H94.7311C94.8695 51.1559 95.0073 51.1298 95.1342 51.0744V52.3248C95.0162 52.2019 94.8709 52.1083 94.7101 52.0517C94.5493 51.995 94.3774 51.9768 94.2082 51.9986H93.1189V54.7932C93.6018 54.8693 94.0897 54.9093 94.5786 54.9128C95.4054 54.9628 96.2255 54.7371 96.9098 54.2712Z" fill="#EC2229"/>
<path d="M103.021 54.2057L102.4 55.7607H97.585C97.7097 55.696 97.8178 55.6034 97.9009 55.4903C97.9841 55.3772 98.04 55.2464 98.0643 55.1082C98.0893 54.8261 98.0893 54.5422 98.0643 54.2601V49.5626C98.0893 49.2804 98.0893 48.9966 98.0643 48.7144C98.037 48.5773 97.9799 48.4479 97.8971 48.3352C97.8143 48.2225 97.7077 48.1292 97.585 48.062H99.8182C99.6954 48.1292 99.5888 48.2225 99.506 48.3352C99.4232 48.4479 99.3661 48.5773 99.3388 48.7144C99.3138 48.9966 99.3138 49.2804 99.3388 49.5626V54.8472C99.862 54.9233 100.39 54.9633 100.918 54.9669C101.287 54.9717 101.655 54.9204 102.008 54.8146C102.373 54.6606 102.714 54.4555 103.021 54.2057Z" fill="#EC2229"/>
<path d="M109.252 47.9858L108.87 49.3886C108.822 49.2957 108.756 49.2133 108.675 49.1461C108.595 49.079 108.502 49.0283 108.402 48.9971C108.192 48.9732 107.98 48.9732 107.77 48.9971C107.672 48.9885 107.574 48.9885 107.476 48.9971H106.757V54.434C106.739 54.7255 106.78 55.0176 106.877 55.293C106.992 55.5103 107.165 55.6911 107.378 55.815H105.036C105.162 55.7524 105.272 55.6605 105.355 55.5469C105.438 55.4334 105.493 55.3016 105.515 55.1625C105.56 54.8822 105.578 54.5982 105.57 54.3144V48.9862C105.337 48.9862 105.021 48.9862 104.622 48.9862C104.352 48.978 104.081 48.9999 103.816 49.0515C103.551 49.1323 103.304 49.2613 103.086 49.4321L103.522 48.0293C103.716 48.0863 103.918 48.112 104.121 48.1055H108.609C108.758 48.1137 108.907 48.1137 109.056 48.1055L109.252 47.9858Z" fill="#EC2229"/>
<path d="M115.2 53.5424C115.197 53.8448 115.13 54.1432 115.004 54.4184C114.878 54.6936 114.697 54.9397 114.47 55.1408C114.138 55.4407 113.749 55.6719 113.326 55.8212C112.904 55.9705 112.456 56.0349 112.008 56.0107C111.302 56.0071 110.602 55.882 109.939 55.641L109.579 54.2057C110.3 54.8079 111.21 55.1388 112.15 55.1408C112.597 55.1536 113.037 55.0324 113.414 54.7928C113.564 54.7048 113.689 54.5795 113.777 54.429C113.865 54.2785 113.912 54.1079 113.915 53.9338C113.915 53.7741 113.88 53.6162 113.812 53.4715C113.744 53.3268 113.646 53.1988 113.523 53.0965C113.061 52.7638 112.56 52.4898 112.03 52.281C111.448 52.0413 110.902 51.723 110.407 51.335C110.21 51.1677 110.052 50.9592 109.945 50.7243C109.838 50.4894 109.783 50.2339 109.786 49.9758C109.781 49.6775 109.852 49.3829 109.991 49.1189C110.13 48.8548 110.333 48.6298 110.581 48.4643C111.229 48.05 111.992 47.8519 112.76 47.8989C113.364 47.9034 113.965 47.9875 114.547 48.149V49.4864C114.303 49.2382 114.011 49.0419 113.689 48.9092C113.367 48.7765 113.021 48.7102 112.673 48.7144C112.286 48.7024 111.904 48.8128 111.584 49.0297C111.448 49.1128 111.337 49.2298 111.26 49.369C111.184 49.5082 111.145 49.6648 111.148 49.8235C111.148 49.9648 111.179 50.1044 111.239 50.2322C111.299 50.3601 111.387 50.473 111.496 50.5629C111.928 50.8755 112.396 51.1347 112.891 51.335C113.499 51.5875 114.077 51.9085 114.612 52.2919C114.801 52.4398 114.953 52.63 115.055 52.8472C115.157 53.0644 115.207 53.3025 115.2 53.5424Z" fill="#EC2229"/>
</g>
<defs>
<clipPath id="clip0">
<rect width="133" height="56" fill="white"/>
</clipPath>
</defs>
</svg>
