<?xml version="1.0" encoding="utf-8"?><svg xmlns="http://www.w3.org/2000/svg" xmlns:xlink="http://www.w3.org/1999/xlink"><symbol viewBox="0 0 14 10" id="arrow-right-o" xmlns="http://www.w3.org/2000/svg"><path d="M1 5h12M9 9l4-4-4-4"/></symbol><symbol viewBox="0 0 15 16" id="bell" xmlns="http://www.w3.org/2000/svg"><g clip-path="url(#aba)"><path d="M5.509 13.9a2.673 2.673 0 002.442 1.6c1.09 0 2.028-.659 2.442-1.6H5.51zm8.909-1.04H1.482a.528.528 0 01-.52-.407.506.506 0 01.277-.574c.052-.034.443-.309.835-1.14.72-1.527.871-3.679.871-5.214C2.945 2.754 5.191.5 7.95.5c2.753 0 4.994 2.243 5.004 5.005v.02c0 1.535.152 3.687.872 5.213.392.832.783 1.107.835 1.14a.507.507 0 01.277.575.527.527 0 01-.52.406zm.25-.978z"/></g><defs><clipPath id="aba"><path transform="translate(.951 .5)" d="M0 0h14v15H0z"/></clipPath></defs></symbol><symbol viewBox="0 0 9 13" id="bolt" xmlns="http://www.w3.org/2000/svg"><path d="M8.503 5.014a.27.27 0 00-.236-.137H4.719L5.314.332a.272.272 0 00-.5-.177L.5 7.715a.27.27 0 00.23.412h3.496l-.472 4.551a.272.272 0 00.502.167L8.5 5.287a.27.27 0 00.004-.273z"/></symbol><symbol viewBox="0 0 36 43" id="book" xmlns="http://www.w3.org/2000/svg"><path d="M5.68 33.59h28.61c.087 0 .172-.013.253-.033l.019.001c.61 0 1.107-.495 1.107-1.106V1.167c0-.61-.497-1.106-1.107-1.106H5.682A5.349 5.349 0 00.339 5.403c0 .04.008.077.012.115C.347 8.238.313 33.239.347 36.526c-.002.064-.01.127-.01.192 0 2.832 2.218 5.15 5.007 5.326.056.009.11.017.169.017h29.049c.61 0 1.107-.496 1.107-1.107v-4.167a1.108 1.108 0 00-2.214 0v3.06H5.68a3.13 3.13 0 01-3.122-3c.001-.03.007-.059.006-.089a18.465 18.465 0 01-.004-.225 3.131 3.131 0 013.12-2.944zm.755-28.187a1.107 1.107 0 012.214 0v22.484a1.107 1.107 0 01-2.214 0V5.403z"/></symbol><symbol viewBox="0 0 38 46" id="book-az" xmlns="http://www.w3.org/2000/svg"><path d="M13.537 12.413h1.22l-.607-1.573-.613 1.573z"/><path d="M36.635.87H7.55C3.835.87.813 3.825.813 7.46v27.433a8.02 8.02 0 015.259-1.95h31.116V1.411a.548.548 0 00-.553-.542zM17.969 17.005a1.358 1.358 0 01-1.737-.768l-.458-1.188h-3.263l-.463 1.191a1.357 1.357 0 01-1.74.763 1.31 1.31 0 01-.78-1.7l3.19-8.192.011-.03c.522-1.246 2.328-1.248 2.85-.003.006.012.01.024.015.037l3.16 8.19a1.31 1.31 0 01-.785 1.7zm9.244 11.37h-5.666c-1.07 0-1.71-1.163-1.129-2.038l4.176-6.27h-2.872c-.745 0-1.348-.59-1.348-1.318 0-.729.603-1.319 1.348-1.319h5.359c1.068 0 1.713 1.16 1.13 2.038l-4.177 6.27h3.18c.743 0 1.347.59 1.347 1.318 0 .729-.604 1.318-1.348 1.318zM6.072 45.868h30.563a.548.548 0 00.553-.541v-3.285H.988c.596 2.2 2.649 3.826 5.084 3.826zM.987 39.405h36.201V35.58H6.072c-2.434 0-4.488 1.626-5.085 3.825z"/></symbol><symbol viewBox="0 0 22 20" id="book-open" xmlns="http://www.w3.org/2000/svg"><path d="M11 2.655C10.414 1.825 8.402.8 6.03.8 3.186.8.804 2.255.423 3.446V18.31c0 .586.38.83.82.83.352 0 .557-.107.762-.273.654-.625 1.885-1.387 4.023-1.387 2.178 0 3.535.772 4.073 1.338.205.176.449.323.898.323.44 0 .684-.167.898-.323.567-.547 1.895-1.338 4.073-1.338 2.138 0 3.398.742 4.023 1.387.205.166.41.274.762.274.44 0 .82-.245.82-.83V3.445C21.196 2.255 18.812.8 15.971.8 13.598.8 11.586 1.825 11 2.655zM1.713 3.837C1.859 3.22 3.588 2.02 6.029 2.02c2.451 0 4.19 1.211 4.326 1.817v13.75c-.986-.84-2.578-1.309-4.326-1.309-1.758 0-3.35.479-4.316 1.328V3.836zm18.574 0v13.77c-.976-.85-2.558-1.329-4.316-1.329-1.748 0-3.34.469-4.326 1.309V3.837C11.78 3.23 13.52 2.02 15.97 2.02c2.441 0 4.16 1.201 4.316 1.817z"/></symbol><symbol viewBox="0 0 35 27" id="book-open-2" xmlns="http://www.w3.org/2000/svg"><path d="M5.354.135H5.35a1.247 1.247 0 00-1.246 1.252v18.78c0 .69.562 1.251 1.253 1.253 2.916.007 7.8.614 11.17 4.14V5.906a1.2 1.2 0 00-.173-.634C13.59.818 8.275.142 5.354.135zm25.541 20.031V1.386A1.247 1.247 0 0029.65.132h-.004C26.725.14 21.41.816 18.645 5.27a1.2 1.2 0 00-.172.634v19.654c3.37-3.526 8.253-4.133 11.169-4.14a1.257 1.257 0 001.253-1.252z"/><path d="M33.747 4.465h-.908v15.702a3.204 3.204 0 01-3.193 3.196c-2.473.006-6.55.49-9.438 3.223 4.994-1.223 10.259-.428 13.259.256A1.25 1.25 0 0035 25.622V5.716c0-.69-.562-1.252-1.253-1.252zM2.16 20.167V4.465h-.908C.562 4.465 0 5.027 0 5.717v19.904a1.249 1.249 0 001.533 1.22c3-.684 8.265-1.479 13.258-.256-2.887-2.733-6.964-3.216-9.437-3.222a3.204 3.204 0 01-3.194-3.196z"/></symbol><symbol viewBox="0 0 24 24" id="books" xmlns="http://www.w3.org/2000/svg"><path d="M12 0H6.8a.4.4 0 00-.4.4v2.8h-6a.4.4 0 00-.4.4v20c0 .22.18.4.4.4H12a.4.4 0 00.4-.4V.4A.4.4 0 0012 0zm-.4 20.8H7.2V20h4.4v.8zM.8 6h5.6v12H.8V6zm10.8-1.6H7.2V3.2h4.4v1.2zM.8 18.8h5.6V20H.8v-1.2zm6.4.4v-14h4.4v14H7.2zM11.6.8v1.6H7.2V.8h4.4zM6.4 4v1.2H.8V4h5.6zM.8 20.8h5.6v2.4H.8v-2.4zm6.4 2.4v-1.6h4.4v1.6H7.2z"/><path d="M23.987 21.898l-4.8-18.4a.4.4 0 00-.49-.285l-6 1.6a.4.4 0 00-.285.487l4.8 18.4a.4.4 0 00.49.285l6-1.6a.4.4 0 00.285-.487zM13.924 7.926l5.227-1.393.189.72-5.227 1.395-.189-.722zm5.617.103l2.32 8.899-5.225 1.394-2.32-8.9 5.225-1.393zm2.524 9.673l.41 1.57-5.227 1.394-.408-1.57 5.225-1.394zM18.514 4.09l.436 1.67-5.228 1.393-.435-1.669 5.227-1.394zm-.629 19.02l-.436-1.67 5.228-1.394.435 1.67-5.227 1.394zM5.2 7.2H2a.4.4 0 00-.4.4v3.2c0 .22.179.4.4.4h3.2a.4.4 0 00.4-.4V7.6a.4.4 0 00-.4-.4zm-.4 3.2H2.4V8h2.4v2.4z"/></symbol><symbol viewBox="0 0 21 17" id="books-2" xmlns="http://www.w3.org/2000/svg"><path d="M19.502 5.256c-.085-.639-.097-1.738.496-2.107.01-.007.018-.017.028-.025.484-.155.82-.373.557-.666L13.432.304l-11.58 1.61s-1.325.19-1.207 2.25c.064 1.12.416 1.67.724 1.942l-.95.286c-.264.293.071.51.556.666.01.008.017.018.028.025.592.37.58 1.469.496 2.107-2.13.605-1.365.801-1.365.801l.467.114c-.328.296-.655.86-.594 1.927.119 2.06 1.208 2.201 1.208 2.201l7.577 2.463 11.437-2.77s.765-.197-1.365-.802c-.085-.637-.097-1.737.497-2.107a.127.127 0 00.027-.025c.485-.155.82-.372.557-.665l-.497-.15c.331-.2.83-.723.907-2.08.054-.933-.19-1.48-.471-1.802l.982-.238s.765-.197-1.364-.801zm-9.566-.027l1.923-.395 6.5-1.335.968-.2c-.31.567-.297 1.342-.246 1.84.012.112.025.215.037.294l-1.06.263-8.203 2.04.08-2.507zM1.674 7.234l.968.199 6.242 1.283.545.112 1.636.336.08 2.508-8.431-2.098-.831-.207a6.05 6.05 0 00.037-.294c.05-.498.064-1.273-.246-1.84zm-.376-3.17c-.012-.548.086-.944.283-1.146a.514.514 0 01.376-.155c.053 0 .092.007.095.007L7.04 4.397l2.489.811-.082 2.525-6.983-1.957-.368-.104a.224.224 0 00-.046-.007c-.03-.002-.72-.065-.753-1.601zM8.81 15.602l-7.351-2.06a.222.222 0 00-.046-.008c-.03-.002-.72-.065-.753-1.6-.012-.55.086-.945.283-1.147a.515.515 0 01.376-.155c.053 0 .092.007.095.007l7.478 2.438-.082 2.525zm9.633-2.595c.012.113.025.216.037.294l-9.263 2.305.08-2.508 1.981-.407.293.071 1.096-.356 5.053-1.039.969-.199c-.31.566-.297 1.342-.246 1.84zm.51-3.407a.178.178 0 00-.049.007l-.699.196-6.652 1.865-.082-2.525 2.183-.712 5.285-1.723s.278-.062.482.145c.197.201.294.598.283 1.145-.035 1.536-.725 1.6-.75 1.602z"/></symbol><symbol viewBox="0 0 46 47" id="breathable" xmlns="http://www.w3.org/2000/svg"><g clip-path="url(#aja)"><path d="M44.05 24.638l1.205 2.411-5.39 2.695-1.206-2.41 5.39-2.696zm-3.44 7.944H46v2.696h-5.39v-2.696zm3.44 10.643l-5.39-2.695 1.206-2.411 5.39 2.695-1.206 2.411zM12.981 26.7a4.044 4.044 0 01-2.11-3.55v-5.39a4.047 4.047 0 014.043-4.043c.89 0 1.707.297 2.376.787l7.943-6.178h5.943c3.722 0 6.738-3.107 6.738-6.828V.15H18.307C8.439.15.179 7.95.003 17.428a17.389 17.389 0 004.585 12.136c.095.104.25.22.342.324h6.456L12.98 26.7z"/><path d="M33.852 11.021h-7.695l-7.347 5.715c.087.33.147.668.147 1.024v1.347h-2.695V17.76a1.348 1.348 0 00-2.695 0v5.39a1.349 1.349 0 002.695 0h2.695a4.046 4.046 0 01-3.157 3.939l-2.748 5.495H6.758c.884 1.685 1.407 3.47 1.418 5.274v8.292h18.867v-5.48h4.133a4.047 4.047 0 004.043-4.044v-3.528l-3.725-1.862 3.725-1.862v-2.696l6.318-3.158-6.328-6.328a17.492 17.492 0 00-1.357-6.17z"/></g><defs><clipPath id="aja"><path transform="translate(0 .06)" d="M0 0h46v46H0z"/></clipPath></defs></symbol><symbol viewBox="0 0 13 12" id="calendar" xmlns="http://www.w3.org/2000/svg"><path d="M2.064 11.97h8.86c1.367 0 2.057-.69 2.057-2.044V2.037C12.981.69 12.291 0 10.924 0h-8.86C.697 0 0 .684 0 2.037v7.889c0 1.353.697 2.044 2.064 2.044zm-.061-1.128c-.567 0-.875-.294-.875-.889V3.91c0-.588.308-.889.875-.889h8.976c.56 0 .881.301.881.89v6.042c0 .595-.32.889-.881.889H2.002zm3.233-5.524h.376c.233 0 .308-.068.308-.3v-.376c0-.226-.075-.301-.308-.301h-.376c-.232 0-.307.075-.307.3v.377c0 .232.075.3.307.3zm2.133 0h.383c.226 0 .3-.068.3-.3v-.376c0-.226-.074-.301-.3-.301h-.383c-.225 0-.3.075-.3.3v.377c0 .232.075.3.3.3zm2.14 0h.376c.232 0 .307-.068.307-.3v-.376c0-.226-.075-.301-.307-.301h-.376c-.233 0-.308.075-.308.3v.377c0 .232.075.3.308.3zM3.097 7.417h.382c.226 0 .301-.068.301-.294V6.74c0-.225-.075-.294-.3-.294h-.383c-.226 0-.301.069-.301.294v.383c0 .226.075.294.3.294zm2.14 0h.375c.233 0 .308-.068.308-.294V6.74c0-.225-.075-.294-.308-.294h-.376c-.232 0-.307.069-.307.294v.383c0 .226.075.294.307.294zm2.132 0h.383c.226 0 .3-.068.3-.294V6.74c0-.225-.074-.294-.3-.294h-.383c-.225 0-.3.069-.3.294v.383c0 .226.075.294.3.294zm2.14 0h.376c.232 0 .307-.068.307-.294V6.74c0-.225-.075-.294-.307-.294h-.376c-.233 0-.308.069-.308.294v.383c0 .226.075.294.308.294zM3.097 9.522h.382c.226 0 .301-.068.301-.293v-.383c0-.226-.075-.294-.3-.294h-.383c-.226 0-.301.068-.301.294v.383c0 .225.075.293.3.293zm2.14 0h.375c.233 0 .308-.068.308-.293v-.383c0-.226-.075-.294-.308-.294h-.376c-.232 0-.307.068-.307.294v.383c0 .225.075.293.307.293zm2.132 0h.383c.226 0 .3-.068.3-.293v-.383c0-.226-.074-.294-.3-.294h-.383c-.225 0-.3.068-.3.294v.383c0 .225.075.293.3.293z"/></symbol><symbol viewBox="0 0 23 23" id="calendar-clock" xmlns="http://www.w3.org/2000/svg"><path d="M19.035 2.825a1.19 1.19 0 00-1.19-1.19h-1.19a1.19 1.19 0 00-2.379 0H12.69a1.19 1.19 0 00-2.38 0H8.724a1.19 1.19 0 00-2.38 0H4.76a1.19 1.19 0 00-2.38 0H1.19A1.19 1.19 0 000 2.825V19.48c0 .22.178.397.397.397h1.19v1.19c0 .219.177.396.396.396h10.442l.014-.002a6.736 6.736 0 106.596-11.686v-6.95zm-3.966-1.19a.397.397 0 01.793 0v1.19h-.793v-1.19zm-3.965 0a.397.397 0 11.793 0v1.19h-.793v-1.19zm-3.966 0a.397.397 0 01.793 0v1.19h-.793v-1.19zm-3.966 0a.397.397 0 01.794 0v1.19h-.794v-1.19zM.793 2.825c0-.219.178-.396.397-.396h1.19v.793c0 .219.177.396.396.396h1.586a.397.397 0 00.397-.396v-.793h1.586v.793c0 .219.177.396.396.396h1.587a.397.397 0 00.396-.396v-.793h1.586v.793c0 .219.178.396.397.396h1.586a.397.397 0 00.397-.396v-.793h1.586v.793c0 .219.178.396.397.396h1.586a.397.397 0 00.396-.396v-.793h1.19c.219 0 .397.177.397.396v1.983H.793V2.825zM2.38 19.877h8.44c.203.281.426.546.67.793H2.38v-.793zm19.828-3.965a5.948 5.948 0 11-5.948-5.949 5.955 5.955 0 015.948 5.949zM16.26 9.17a6.737 6.737 0 00-5.945 9.914H.794V5.601h17.448v3.868a6.722 6.722 0 00-1.983-.299z"/><path d="M3.569 7.187a1.19 1.19 0 100 2.38 1.19 1.19 0 000-2.38zm0 1.586a.397.397 0 110-.793.397.397 0 010 .793zm3.965-1.586a1.19 1.19 0 100 2.38 1.19 1.19 0 000-2.38zm0 1.586a.397.397 0 110-.793.397.397 0 010 .793zM11.5 7.187a1.19 1.19 0 100 2.38 1.19 1.19 0 000-2.38zm0 1.586a.397.397 0 110-.793.397.397 0 010 .793zM3.569 10.36a1.19 1.19 0 100 2.38 1.19 1.19 0 000-2.38zm0 1.586a.397.397 0 110-.793.397.397 0 010 .793zm3.965-1.586a1.19 1.19 0 100 2.38 1.19 1.19 0 000-2.38zm0 1.586a.397.397 0 110-.793.397.397 0 010 .793zm-3.965 1.586a1.19 1.19 0 100 2.38 1.19 1.19 0 000-2.38zm0 1.586a.397.397 0 110-.793.397.397 0 010 .793zm3.965-1.586a1.19 1.19 0 100 2.38 1.19 1.19 0 000-2.38zm0 1.586a.397.397 0 110-.793.397.397 0 010 .793zm3.57.793a5.155 5.155 0 105.155-5.155 5.161 5.161 0 00-5.155 5.155zm9.517 0h-.793a.397.397 0 000 .793h.717a4.368 4.368 0 01-3.89 3.55v-.774a.397.397 0 10-.793 0v.773a4.368 4.368 0 01-3.89-3.549h.718a.397.397 0 000-.793h-.793a4.366 4.366 0 013.965-4.341v.772a.397.397 0 00.793 0v-.773a4.366 4.366 0 013.966 4.342z"/><path d="M16.344 15.721l-.548-.823a.397.397 0 00-.66.44l.793 1.19a.398.398 0 00.584.085l2.38-1.983a.397.397 0 10-.508-.61l-2.04 1.701z"/></symbol><symbol viewBox="0 0 20 20" id="chart-pie" xmlns="http://www.w3.org/2000/svg"><path d="M11.21 0a.586.586 0 00-.585.586v8.242c0 .324.262.586.586.586h8.203A.586.586 0 0020 8.828C20 3.982 16.058 0 11.21 0zm1.086 18.686l-2.843-7.62V2.968a.586.586 0 00-.586-.586C4.021 2.383 0 6.325 0 11.172 0 16.018 4.02 20 8.867 20c1.061 0 2.1-.188 3.087-.56a.587.587 0 00.342-.754z"/><path d="M19.414 10.586h-8.203a.587.587 0 00-.549.792l2.88 7.72a.586.586 0 00.756.342C17.708 18.157 20 14.811 20 11.172a.586.586 0 00-.586-.586z"/></symbol><symbol viewBox="0 0 12 13" id="check" xmlns="http://www.w3.org/2000/svg"><path d="M3.04 13l-.875-.38c-.891-.389-1.12-1.315-1.215-1.711L0 7.062l2.056-.478.688 2.79C4.8 5.95 7.22 2.388 10.804 0L12 1.695C8.18 4.24 5.702 8.464 3.518 12.19L3.04 13z"/></symbol><symbol viewBox="0 0 24 24" id="check-circle" xmlns="http://www.w3.org/2000/svg"><path d="M24 12c0 6.627-5.373 12-12 12S0 18.627 0 12 5.373 0 12 0s12 5.373 12 12zm-13.388 6.354l8.903-8.903a.774.774 0 000-1.095L18.42 7.26a.774.774 0 00-1.095 0l-7.26 7.26-3.39-3.39a.774.774 0 00-1.095 0l-1.095 1.096a.774.774 0 000 1.095l5.032 5.032a.774.774 0 001.095 0z"/></symbol><symbol viewBox="0 0 9 16" id="chevron-right" xmlns="http://www.w3.org/2000/svg"><path d="M8.69 7.588L1.754.67a.582.582 0 00-.821.823L7.457 8 .932 14.507a.581.581 0 10.82.823l6.939-6.918a.58.58 0 000-.824z"/></symbol><symbol viewBox="0 0 52 57" id="clipboard-list-check" xmlns="http://www.w3.org/2000/svg"><path d="M23.941 54.773c0 1.23-.996 2.227-2.226 2.227H8.912c-4.91 0-8.906-3.995-8.906-8.906V8.906C.006 3.996 4 0 8.912 0h27.375c4.91 0 8.906 3.995 8.906 8.906v23.602a2.227 2.227 0 01-4.453 0V8.906a4.458 4.458 0 00-4.453-4.453H8.912A4.458 4.458 0 004.46 8.906v39.188a4.458 4.458 0 004.453 4.453h12.803c1.23 0 2.226.997 2.226 2.226zm26.234-18.51c-1-.715-2.39-.484-3.106.515l-10.975 15.33c-.3.348-.676.422-.877.436a1.256 1.256 0 01-.954-.341l-7.105-6.822a2.226 2.226 0 10-3.084 3.212l7.112 6.829a5.743 5.743 0 004.327 1.565 5.739 5.739 0 004.157-2.224L50.69 39.37c.715-1 .485-2.39-.515-3.106zM34.06 13.36H11.126a2.226 2.226 0 100 4.454H34.06a2.227 2.227 0 000-4.454zm2.227 11.133c0-1.23-.998-2.226-2.227-2.226H11.126a2.226 2.226 0 100 4.453H34.06c1.23 0 2.227-.997 2.227-2.227zm-25.16 6.68a2.226 2.226 0 100 4.453h13.928a2.226 2.226 0 100-4.453H11.127z"/></symbol><symbol viewBox="0 0 10 10" id="clock" xmlns="http://www.w3.org/2000/svg"><path d="M6.781 5.883L5.387 4.838v-2.13a.387.387 0 10-.775 0V5.03c0 .122.058.237.155.31l1.55 1.162a.385.385 0 00.542-.078.387.387 0 00-.078-.542z"/><path d="M5 0C2.243 0 0 2.243 0 5s2.243 5 5 5 5-2.243 5-5-2.243-5-5-5zm0 9.225A4.23 4.23 0 01.775 5 4.23 4.23 0 015 .775 4.23 4.23 0 019.225 5 4.23 4.23 0 015 9.225z"/></symbol><symbol viewBox="0 0 20 20" id="clock-2" xmlns="http://www.w3.org/2000/svg"><path d="M10 0C4.486 0 0 4.486 0 10s4.486 10 10 10 10-4.486 10-10S15.514 0 10 0zm4.756 15.172a.831.831 0 01-1.178 0L9.41 11.006a.83.83 0 01-.244-.59V5a.833.833 0 111.666 0v5.072l3.923 3.922a.833.833 0 010 1.178z"/></symbol><symbol viewBox="0 0 15 16" id="comment-line-o" xmlns="http://www.w3.org/2000/svg"><path d="M.924 1.743V14l2.528-2.6h9.389c.866 0 1.083 0 1.083-.124V1.743c0-.594 0-.743-.12-.743H1.646c-.722 0-.722.371-.722.743z"/><rect x="4.174" y="4.25" width="3.5" height=".5" rx=".25"/><rect x="4.174" y="6.25" width="7.5" height=".5" rx=".25"/><rect x="4.174" y="8.25" width="7.5" height=".5" rx=".25"/></symbol><symbol viewBox="0 0 35 33" id="comments" xmlns="http://www.w3.org/2000/svg"><path d="M22.777 6.862A11.971 11.971 0 0012.03.16C5.398.16.002 5.527.002 12.123c0 1.792.384 3.51 1.144 5.112L.02 22.86a1.026 1.026 0 001.205 1.207l5.693-1.126c.766.364 1.559.64 2.374.831-1.827-8.65 4.73-16.77 13.485-16.909z"/><path d="M33.855 25.985c.197-.414.367-.836.513-1.265h-.037c2.56-7.514-2.824-15.411-10.771-15.796-6.839-.316-12.52 5.16-12.52 11.948 0 6.591 5.357 11.953 11.945 11.963 1.787-.003 3.5-.387 5.097-1.145 6.235 1.233 5.749 1.145 5.892 1.145.648 0 1.132-.594 1.006-1.227l-1.125-5.623z"/></symbol><symbol viewBox="0 0 16 16" id="directions" xmlns="http://www.w3.org/2000/svg"><g clip-path="url(#ava)"><path d="M15.764 7.434l-7.2-7.2a.797.797 0 00-1.128 0l-7.2 7.2a.802.802 0 000 1.132l7.2 7.196v.004a.802.802 0 001.132 0l7.2-7.2a.798.798 0 00-.004-1.132zM9.6 9.998v-2H6.4v2.4H4.8v-3.2c0-.444.356-.8.8-.8h4v-2l2.8 2.8-2.8 2.8z"/></g><defs><clipPath id="ava"><path d="M0 0h16v16H0z"/></clipPath></defs></symbol><symbol viewBox="0 0 40 33" id="double-quote-2-left" xmlns="http://www.w3.org/2000/svg"><path d="M.265 18.903C1.256 12.053 4.458 5.757 9.855 0l2.706 2.063C9.323 5.542 7.643 8.645 7.554 11.37c.089 1.56 1.22 2.654 3.38 3.282.636.18 1.308.412 2.034.681 3.52 1.65 5.272 4.43 5.272 8.358a9.312 9.312 0 01-.938 4.107C15.675 31.279 13.074 33 9.465 33a9.133 9.133 0 01-3.52-.681C1.98 30.866 0 27.44 0 22.041c0-.987.088-2.045.265-3.139zm21.76 0c.991-6.85 4.194-13.146 9.59-18.903l2.706 2.063c-3.237 3.479-4.918 6.582-5.006 9.308.088 1.56 1.22 2.654 3.378 3.282.637.18 1.31.412 2.035.681 3.52 1.65 5.272 4.43 5.272 8.358a9.312 9.312 0 01-.938 4.107C37.435 31.279 34.834 33 31.225 33a9.198 9.198 0 01-3.52-.681c-3.963-1.453-5.945-4.879-5.945-10.277-.017-.987.071-2.045.266-3.139z"/></symbol><symbol viewBox="0 0 43 35" id="double-quote-2-right" xmlns="http://www.w3.org/2000/svg"><path d="M42.329 14.8c-1.056 7.194-4.467 13.803-10.215 19.848l-2.883-2.166c3.448-3.653 5.239-6.91 5.333-9.773-.094-1.638-1.3-2.786-3.6-3.445a29.006 29.006 0 01-2.167-.716c-3.75-1.732-5.616-4.651-5.616-8.775 0-1.525.34-2.975.999-4.312C25.914 1.808 28.684 0 32.529 0c1.338 0 2.6.245 3.75.716 4.222 1.525 6.333 5.121 6.333 10.79 0 1.035-.095 2.146-.283 3.295zm-23.181 0c-1.055 7.194-4.467 13.803-10.215 19.848L6.05 32.482c3.449-3.653 5.239-6.91 5.333-9.773-.094-1.638-1.3-2.786-3.6-3.445a28.996 28.996 0 01-2.167-.716C1.866 16.816 0 13.897 0 9.773c0-1.525.34-2.975.999-4.312C2.733 1.808 5.503 0 9.348 0c1.338 0 2.582.245 3.75.716 4.222 1.525 6.333 5.121 6.333 10.79a16.936 16.936 0 01-.283 3.295z"/></symbol><symbol viewBox="0 0 71 50" id="double-quote-left" xmlns="http://www.w3.org/2000/svg"><path d="M22.02 9.26l2.645-4.8C26.77.65 24.004-4 19.675-4h-3.849a5.719 5.719 0 00-4.99 2.94L1.183 16.4c-.45.84-.721 1.8-.721 2.76v25.021c0 3.15 2.555 5.7 5.712 5.7h8.78c9.8 0 17.768-7.92 17.768-17.73v-8.76c0-3.15-2.556-5.7-5.713-5.7-4.359 0-7.095-4.65-4.99-8.43zm37.49 0l2.646-4.8C64.26.65 61.494-4 57.165-4h-3.849a5.719 5.719 0 00-4.99 2.94L38.675 16.4c-.451.84-.722 1.8-.722 2.76v25.021c0 3.15 2.556 5.7 5.712 5.7h8.78c9.8 0 17.768-7.92 17.768-17.73v-8.76c0-3.15-2.555-5.7-5.712-5.7-4.36 0-7.096-4.65-4.991-8.43z"/></symbol><symbol viewBox="0 0 12 12" id="download" xmlns="http://www.w3.org/2000/svg"><path d="M11.063 7.336v3.258a.47.47 0 01-.47.469H1.407a.47.47 0 01-.468-.47V7.337H0v3.258C0 11.369.63 12 1.406 12h9.188c.775 0 1.406-.63 1.406-1.406V7.336h-.938z" fill-opacity=".7"/><path d="M8.25 5.525l-1.781 1.78V0H5.53v7.306L3.75 5.525l-.663.662L6 9.1l2.913-2.912-.663-.663z" fill-opacity=".7"/></symbol><symbol viewBox="0 0 14 14" id="download-2" xmlns="http://www.w3.org/2000/svg"><path d="M13.764 9.392a.779.779 0 00-.572-.236H9.288L8.144 10.3A1.594 1.594 0 017 10.772c-.437 0-.819-.157-1.144-.472L4.72 9.156H.808a.78.78 0 00-.572.236.779.779 0 00-.236.572v2.692c0 .225.079.415.236.572a.779.779 0 00.572.236h12.384a.779.779 0 00.572-.236.779.779 0 00.236-.572V9.964a.778.778 0 00-.236-.572zm-3.154 2.835a.518.518 0 01-.38.16.518.518 0 01-.378-.16.517.517 0 01-.16-.378.52.52 0 01.16-.379.517.517 0 01.379-.16c.146 0 .272.053.379.16a.52.52 0 01.16.379.517.517 0 01-.16.378zm2.153 0a.517.517 0 01-.378.16.517.517 0 01-.379-.16.517.517 0 01-.16-.378c0-.146.053-.273.16-.379a.517.517 0 01.379-.16c.145 0 .272.053.378.16.107.106.16.233.16.379a.517.517 0 01-.16.378z"/><path d="M6.621 9.533a.5.5 0 00.379.16.5.5 0 00.379-.16l3.769-3.77c.174-.162.213-.358.118-.588a.503.503 0 00-.497-.328H8.615v-3.77A.518.518 0 008.455.7a.518.518 0 00-.378-.16H5.923a.518.518 0 00-.379.16.518.518 0 00-.16.379v3.769H3.232a.503.503 0 00-.497.328c-.095.23-.056.426.118.589l3.77 3.77z"/></symbol><symbol viewBox="0 0 44 9" id="ellipsis-h" xmlns="http://www.w3.org/2000/svg"><circle cx="22" cy="4.5" r="4"/><circle cx="4.05" cy="4.5" r="4"/><circle cx="39.95" cy="4.5" r="4"/></symbol><symbol viewBox="0 0 16 16" id="equalizer" xmlns="http://www.w3.org/2000/svg"><g clip-path="url(#bca)" fill-opacity=".7"><path d="M15.429 7.43H6.205a2.275 2.275 0 00-4.41 0H.571a.571.571 0 100 1.142h1.224a2.275 2.275 0 004.41 0h9.224a.571.571 0 100-1.143zM4 9.142a1.143 1.143 0 110-2.285 1.143 1.143 0 010 2.285zm11.429-7.428h-1.796a2.275 2.275 0 00-4.409 0H.571a.571.571 0 100 1.143h8.653a2.275 2.275 0 004.41 0h1.795a.571.571 0 100-1.143zm-4 1.715a1.143 1.143 0 110-2.286 1.143 1.143 0 010 2.286zm4 9.713H12.49a2.275 2.275 0 00-4.409 0H.571a.571.571 0 000 1.143h7.51a2.275 2.275 0 004.41 0h2.938a.571.571 0 000-1.143zm-5.143 1.714a1.143 1.143 0 110-2.285 1.143 1.143 0 010 2.285z"/></g><defs><clipPath id="bca"><path d="M0 0h16v16H0z"/></clipPath></defs></symbol><symbol viewBox="0 0 12 12" id="eye" xmlns="http://www.w3.org/2000/svg"><path d="M11.924 5.767C11.817 5.62 9.262 2.176 6 2.176 2.738 2.176.183 5.62.076 5.766a.396.396 0 000 .467C.183 6.38 2.738 9.824 6 9.824c3.262 0 5.816-3.444 5.924-3.59a.395.395 0 000-.467zM6 9.033C3.597 9.033 1.516 6.747.9 6c.615-.748 2.692-3.033 5.1-3.033 2.403 0 4.484 2.286 5.1 3.033-.615.748-2.692 3.033-5.1 3.033z" fill-opacity=".7"/><path d="M6 3.625a2.376 2.376 0 00-2.374 2.374A2.376 2.376 0 006 8.372 2.376 2.376 0 008.374 6 2.376 2.376 0 006 3.625zm0 3.956c-.872 0-1.582-.71-1.582-1.582 0-.873.71-1.583 1.582-1.583.873 0 1.583.71 1.583 1.583 0 .872-.71 1.582-1.583 1.582z" fill-opacity=".7"/></symbol><symbol viewBox="0 0 9 16" id="facebook" xmlns="http://www.w3.org/2000/svg"><path d="M8.41 9l.467-2.897h-2.92V4.226c0-.79.406-1.563 1.713-1.563h1.325V.198S7.792 0 6.642 0C4.236 0 2.67 1.388 2.67 3.898v2.205H0v2.896h2.67V16h3.288V9H8.41z"/></symbol><symbol viewBox="0 0 17 22" id="file" xmlns="http://www.w3.org/2000/svg"><path d="M.471 18.431c0 1.949.974 2.933 2.902 2.933H13.7c1.928 0 2.902-.984 2.902-2.933V3.595c0-1.938-.974-2.933-2.902-2.933H3.373C1.445.661.471 1.656.471 3.594v14.838zm1.343-.02V3.615c0-1.046.554-1.61 1.62-1.61h10.203c1.067 0 1.62.564 1.62 1.61V18.41c0 1.046-.553 1.61-1.62 1.61H3.435c-1.067 0-1.62-.564-1.62-1.61zM4.788 6.014h7.516a.512.512 0 00.523-.523.512.512 0 00-.523-.523H4.788a.515.515 0 00-.533.523c0 .297.225.523.533.523zm0 3.394h7.516a.519.519 0 00.523-.523.512.512 0 00-.523-.523H4.788a.515.515 0 00-.533.523.52.52 0 00.533.523zm0 3.394h3.6a.519.519 0 00.532-.513.53.53 0 00-.533-.533H4.788a.523.523 0 00-.533.533c0 .287.225.513.533.513z"/></symbol><symbol viewBox="0 0 34 34" id="file-edit" xmlns="http://www.w3.org/2000/svg"><path d="M31.755 10.743a1.995 1.995 0 00-2.667-.137c-.113.092-.025.011-1.747 1.733l4.47 4.47 1.607-1.586a1.994 1.994 0 000-2.817l-1.663-1.663zm-13.581 10.85l-2.63 5.635a.996.996 0 001.325 1.324l5.634-2.63c.223-.104-.452.528 7.89-7.71l-4.46-4.462c-8.272 8.271-7.653 7.616-7.759 7.843z"/><path d="M24.181 27.145a2.98 2.98 0 01-.836.581l-5.634 2.63a2.984 2.984 0 01-3.377-.595 2.997 2.997 0 01-.595-3.377l2.63-5.635c.147-.316.347-.602.594-.849l8.472-8.471v-8.44A2.992 2.992 0 0022.446 0H2.99A2.992 2.992 0 00.001 2.988v28.024A2.992 2.992 0 002.989 34h19.457a2.992 2.992 0 002.989-2.988v-5.105l-1.254 1.238zM5.314 6.44h14.875a.996.996 0 110 1.993H5.314a.996.996 0 010-1.993zm0 5.313H17a.996.996 0 110 1.992H5.314a.996.996 0 010-1.992zm-.997 6.309c0-.55.446-.997.997-.997h8.5a.996.996 0 110 1.993h-8.5a.996.996 0 01-.997-.997z"/></symbol><symbol viewBox="0 0 14 14" id="gift" xmlns="http://www.w3.org/2000/svg"><path d="M1.23 3.281H2.9a2.04 2.04 0 01-.412-1.23C2.488.92 3.408 0 4.54 0c.681 0 1.184.244 1.58.768.333.438.576 1.05.881 1.824.305-.774.548-1.386.88-1.824C8.277.244 8.78 0 9.46 0c1.132 0 2.052.92 2.052 2.05 0 .462-.154.888-.412 1.231h1.67c.678 0 1.23.552 1.23 1.23v.821c0 .535-.343.99-.82 1.16v6.278c0 .678-.552 1.23-1.23 1.23h-9.9c-.678 0-1.23-.552-1.23-1.23V6.492A1.232 1.232 0 010 5.332v-.82c0-.679.552-1.23 1.23-1.23zm5.017-.362C5.62 1.325 5.38.82 4.54.82a1.232 1.232 0 000 2.461h1.852l-.144-.362zM9.461.82c-.84 0-1.08.505-1.708 2.099l-.144.362h1.852a1.231 1.231 0 000-2.46zm-.82 12.36h3.308a.41.41 0 00.41-.41V6.563H8.641v6.617zm0-7.438h4.129a.41.41 0 00.41-.41v-.82a.41.41 0 00-.41-.41H8.64v1.64zM6.18 13.18h1.64V4.102H6.18v9.078zm-4.54-.41c0 .226.185.41.41.41h3.31V6.563H1.64v6.207zM.82 5.332c0 .226.184.41.41.41h4.13v-1.64H1.23a.41.41 0 00-.41.41v.82z"/></symbol><symbol viewBox="0 0 24 22" id="graduation-cap" xmlns="http://www.w3.org/2000/svg"><path d="M23.532 6.344a.703.703 0 00-.001-1.326L12.234 1.032a.703.703 0 00-.468 0L.47 5.018a.703.703 0 00-.001 1.326l4.475 1.59v4.587c0 .757.79 1.397 2.347 1.903 1.357.44 3.03.683 4.71.683 1.68 0 3.353-.243 4.71-.683 1.558-.506 2.347-1.146 2.347-1.903V7.935l1.848-.657v6.355a2.119 2.119 0 00-1.412 1.995c0 .92.59 1.704 1.412 1.994v2.686a.703.703 0 001.406 0v-2.686a2.118 2.118 0 001.412-1.994c0-.92-.59-1.704-1.412-1.995V6.778l1.221-.434zm-1.924 9.993a.71.71 0 11.002-1.42.71.71 0 01-.002 1.42zM12 2.44l9.19 3.243L12 8.95 2.81 5.684 12 2.44zm5.651 9.974c-.135.136-.617.461-1.706.772-1.162.331-2.563.514-3.945.514-1.382 0-2.783-.183-3.945-.514-1.089-.31-1.571-.636-1.706-.772v-3.98l5.415 1.925a.702.702 0 00.472 0l5.415-1.926v3.981z"/></symbol><symbol viewBox="0 0 21 19" id="graduation-cap-2" xmlns="http://www.w3.org/2000/svg"><path d="M20.59 4.265L10.705.777a.615.615 0 00-.41 0L.411 4.265a.615.615 0 00-.002 1.16l9.885 3.514a.615.615 0 00.412 0l9.885-3.514a.615.615 0 00-.002-1.16zm-1.067 8.212V7.11l-1.23.438v4.929a1.235 1.235 0 000 2.143v3.023a.615.615 0 001.23 0V14.62a1.235 1.235 0 000-2.143z"/><path d="M10.5 10.204c-.21 0-.419-.036-.618-.106L4.325 8.122v2.707c0 .663.691 1.223 2.054 1.665 1.188.386 2.652.598 4.121.598 1.47 0 2.934-.212 4.122-.598 1.363-.442 2.053-1.002 2.053-1.665V8.122l-5.556 1.976c-.2.07-.408.106-.619.106z"/></symbol><symbol viewBox="0 0 26 18" id="group" xmlns="http://www.w3.org/2000/svg"><path d="M22.486 8.01a2.966 2.966 0 00-1.703-5.397 2.966 2.966 0 00-1.702 5.397 5.143 5.143 0 00-1.755 1.029 6.655 6.655 0 00-2.407-1.312 3.769 3.769 0 001.816-3.22 3.759 3.759 0 00-3.76-3.76 3.762 3.762 0 00-1.945 6.98 6.71 6.71 0 00-2.382 1.296 5.185 5.185 0 00-1.734-1.008 2.966 2.966 0 00-1.703-5.397A2.966 2.966 0 003.51 8.016 5.21 5.21 0 000 12.938v.34c0 .01.01.02.02.02h6.292a6.92 6.92 0 00-.056.87v.35a2.736 2.736 0 002.736 2.737h7.974a2.736 2.736 0 002.737-2.737v-.35c0-.293-.02-.586-.056-.87h6.332c.01 0 .021-.01.021-.02v-.34a5.23 5.23 0 00-3.514-4.928zm-3.848-2.433c0-1.183.962-2.146 2.145-2.146 1.184 0 2.146.963 2.146 2.146 0 1.168-.942 2.12-2.104 2.145h-.083a2.142 2.142 0 01-2.104-2.145zm-8.612-1.07a2.94 2.94 0 012.938-2.938 2.94 2.94 0 012.938 2.938 2.942 2.942 0 01-2.768 2.932h-.34a2.942 2.942 0 01-2.768-2.932zm-6.975 1.07c0-1.183.962-2.146 2.145-2.146s2.145.963 2.145 2.146c0 1.168-.941 2.12-2.104 2.145h-.082A2.146 2.146 0 013.05 5.577zm3.405 6.893H.833a4.396 4.396 0 014.332-3.925h.062A4.35 4.35 0 018.03 9.59a6.755 6.755 0 00-1.574 2.881zm12.414 2.048c0 1.054-.86 1.913-1.914 1.913H8.982a1.917 1.917 0 01-1.914-1.913v-.35a5.91 5.91 0 015.726-5.9c.057.004.118.004.175.004.057 0 .119 0 .175-.005a5.91 5.91 0 015.726 5.9v.35zm.612-2.048a6.736 6.736 0 00-1.559-2.86 4.37 4.37 0 012.83-1.065h.061a4.396 4.396 0 014.332 3.925h-5.664z"/></symbol><symbol viewBox="0 0 24 16" id="group-2" xmlns="http://www.w3.org/2000/svg"><path d="M12 .176a3.656 3.656 0 00-3.652 3.652A3.656 3.656 0 0012 7.48a3.656 3.656 0 003.652-3.652A3.656 3.656 0 0012 .176zm0 6.26a2.612 2.612 0 01-2.61-2.607A2.612 2.612 0 0112 1.219a2.612 2.612 0 012.608 2.609A2.612 2.612 0 0112 6.437zm7.305-2.088a2.612 2.612 0 00-2.609 2.608 2.612 2.612 0 002.609 2.609 2.612 2.612 0 002.609-2.609 2.612 2.612 0 00-2.609-2.608zm0 4.174a1.567 1.567 0 01-1.565-1.566c0-.863.702-1.565 1.565-1.565a1.567 1.567 0 010 3.131zM4.77 4.348a2.612 2.612 0 00-2.61 2.608 2.612 2.612 0 002.61 2.609 2.612 2.612 0 002.608-2.609A2.612 2.612 0 004.77 4.348zm0 4.174a1.567 1.567 0 01-1.565-1.566c0-.863.702-1.565 1.565-1.565a1.567 1.567 0 010 3.131zm7.23.001a6.79 6.79 0 00-6.782 6.783.522.522 0 001.043 0 5.745 5.745 0 015.74-5.739 5.745 5.745 0 015.739 5.74.522.522 0 001.043 0A6.79 6.79 0 0012 8.522z"/><path d="M19.304 10.61c-.859 0-1.7.234-2.432.678a.523.523 0 00.542.892 3.656 3.656 0 015.543 3.125.522.522 0 001.043 0 4.702 4.702 0 00-4.696-4.696zm-12.177.677A4.699 4.699 0 000 15.305a.522.522 0 001.044 0 3.656 3.656 0 015.541-3.126.523.523 0 00.542-.892z"/></symbol><symbol viewBox="0 0 21 19" id="group-3" xmlns="http://www.w3.org/2000/svg"><path d="M17.969 10.21h-1.624c.165.453.256.942.256 1.452V17.8c0 .213-.037.417-.105.606h2.685a1.821 1.821 0 001.82-1.819v-3.346a3.035 3.035 0 00-3.032-3.031zM4.4 11.662c0-.51.09-.999.256-1.452H3.03A3.035 3.035 0 000 13.241v3.346c0 1.003.816 1.82 1.819 1.82h2.685A1.81 1.81 0 014.4 17.8v-6.138zm7.957-3.032H8.644a3.035 3.035 0 00-3.032 3.032V17.8c0 .335.272.607.607.607h8.563a.606.606 0 00.606-.607v-6.138a3.035 3.035 0 00-3.031-3.031zM10.5.593a3.65 3.65 0 00-3.646 3.646 3.648 3.648 0 005.428 3.18 3.648 3.648 0 001.864-3.18A3.65 3.65 0 0010.5.593zM4.098 3.991A2.73 2.73 0 001.37 6.718a2.73 2.73 0 003.801 2.505c.57-.245 1.04-.68 1.332-1.224a2.71 2.71 0 00.32-1.281A2.73 2.73 0 004.098 3.99zm12.804 0a2.73 2.73 0 00-2.726 2.727 2.737 2.737 0 001.652 2.505 2.73 2.73 0 003.8-2.506 2.73 2.73 0 00-2.726-2.726z"/></symbol><symbol viewBox="0 0 21 20" id="headphones" xmlns="http://www.w3.org/2000/svg"><path d="M1.164 15.311h.39c.128 0 .206-.088.206-.214V9.55c0-4.805 3.613-7.881 8.73-7.881 5.127 0 8.74 3.076 8.74 7.88v5.548c0 .126.079.214.206.214h.39c.322 0 .567-.214.567-.527V9.296c0-5.264-4.082-8.79-9.668-8.79h-.46C4.68.507.599 4.033.599 9.297v5.488c0 .313.244.527.566.527zM3.85 19.15h.81c1.201 0 1.875-.634 1.875-1.758v-4.15c0-1.123-.674-1.758-1.875-1.758h-.81c-.664 0-1.026.342-1.026.996v5.674c0 .645.362.996 1.026.996zm12.49 0h.82c.654 0 1.035-.351 1.035-.996V12.48c0-.654-.38-.996-1.035-.996h-.82c-1.192 0-1.865.635-1.865 1.758v4.15c0 1.124.673 1.758 1.865 1.758z"/></symbol><symbol viewBox="0 0 40 37" id="headphones-2" xmlns="http://www.w3.org/2000/svg"><path d="M19.992 0C8.97.051 0 9.061 0 20.084c0 3.348.84 6.648 2.426 9.572v-5.31c0-.978.349-1.886.96-2.665a16.658 16.658 0 01-.077-1.597c0-9.207 7.49-16.732 16.683-16.775 9.208.042 16.699 7.568 16.699 16.775 0 .592-.033 1.182-.095 1.768.53.74.83 1.587.83 2.494v5.58A20.094 20.094 0 0040 20.084C40 9.061 31.031.051 19.992 0z"/><path d="M3.659 23.49c-.085.277-.13.563-.13.857v7.5c0 2.315 2.757 4.191 6.158 4.191h2.592V20.157H9.687c-2.97 0-5.447 1.43-6.028 3.334zm32.664 8.357v-7.5c0-.18-.019-.358-.051-.533-.385-2.063-2.971-3.658-6.106-3.658h-2.593v15.882h2.593c3.4 0 6.157-1.876 6.157-4.19z"/></symbol><symbol viewBox="0 0 23 23" id="headset" xmlns="http://www.w3.org/2000/svg"><path d="M6.11 9.434a2.024 2.024 0 00-2.022 2.021v5.48c0 1.115.907 2.022 2.021 2.022a2.024 2.024 0 002.022-2.021v-5.48a2.024 2.024 0 00-2.022-2.022zm-3.37 2.021c0-.194.026-.382.058-.568a2.017 2.017 0 00-1.405 1.916v2.785c0 .898.593 1.653 1.405 1.915a3.343 3.343 0 01-.058-.567v-5.481zm14.15-2.021a2.024 2.024 0 00-2.02 2.021v5.48c0 1.115.906 2.022 2.02 2.022.203 0 .395-.039.58-.095a2.017 2.017 0 01-1.927 1.443h-2.146a2.018 2.018 0 00-1.897-1.348 2.024 2.024 0 00-2.021 2.021c0 1.115.906 2.022 2.021 2.022.877 0 1.618-.565 1.897-1.348h2.146a3.373 3.373 0 003.37-3.369v-6.828a2.024 2.024 0 00-2.022-2.021zm3.313 1.453c.032.186.058.374.058.568v5.48c0 .195-.026.383-.058.568a2.017 2.017 0 001.405-1.915v-2.785c0-.899-.593-1.653-1.405-1.916z"/><path d="M11.5 0C5.926 0 1.393 4.534 1.393 10.107v.018a3.337 3.337 0 011.378-.626c.315-4.546 4.104-8.151 8.729-8.151 4.625 0 8.414 3.605 8.729 8.15.512.1.977.323 1.378.627v-.018C21.607 4.534 17.073 0 11.5 0z"/></symbol><symbol viewBox="0 0 24 23" id="home" xmlns="http://www.w3.org/2000/svg"><path d="M23.597 10.125L19.96 6.488V2.286a1.376 1.376 0 00-2.751 0v1.45L14.5 1.029c-1.339-1.338-3.667-1.336-5.003.003L.403 10.125a1.376 1.376 0 001.946 1.946l9.094-9.095a.812.812 0 011.113 0l9.095 9.095a1.374 1.374 0 001.946 0 1.376 1.376 0 000-1.946z"/><path d="M12.478 5.587a.675.675 0 00-.956 0l-8 7.997a.677.677 0 00-.197.479v5.833a2.479 2.479 0 002.478 2.478h3.96V16.24h4.472v6.134h3.961a2.479 2.479 0 002.479-2.478v-5.833a.674.674 0 00-.198-.479l-8-7.997z"/></symbol><symbol viewBox="0 0 37 37" id="key" xmlns="http://www.w3.org/2000/svg"><path d="M36.598 11.925c0-1.533-.31-3.018-.916-4.422a11.317 11.317 0 00-2.5-3.608 11.666 11.666 0 00-3.708-2.432A11.845 11.845 0 0024.929.57c-1.575 0-3.102.302-4.544.892a11.666 11.666 0 00-3.709 2.432 11.315 11.315 0 00-2.5 3.608 11.115 11.115 0 00.522 9.886L.728 30.969a1.09 1.09 0 00-.226 1.244c.04.095.107.18.182.254l3.128 3.044a.894.894 0 00.261.176c.465.194.956.1 1.28-.22l1.933-1.88 2.784 2.707a.896.896 0 00.26.177c.465.194.956.1 1.28-.22l3.084-3a.868.868 0 00.181-.255c.2-.452.102-.93-.226-1.244l-2.739-2.665 7.4-7.203c1.712.917 3.646 1.4 5.615 1.4 1.575 0 3.102-.302 4.544-.892a11.666 11.666 0 003.709-2.433 11.319 11.319 0 002.5-3.608c.61-1.408.92-2.893.92-4.426zm-7.58 3.983a5.836 5.836 0 01-4.093 1.649c-1.544 0-3-.586-4.093-1.65a5.528 5.528 0 01-1.7-3.982c0-1.507.602-2.92 1.695-3.983a5.837 5.837 0 014.093-1.649c1.545 0 3 .586 4.094 1.65a5.523 5.523 0 011.695 3.982 5.467 5.467 0 01-1.69 3.983z"/></symbol><symbol viewBox="0 0 28 16" id="laptop" xmlns="http://www.w3.org/2000/svg"><path d="M1.428 15.854h25.488c.527 0 .938-.42.938-.947a.934.934 0 00-.938-.947h-2.139V2.466c0-1.319-.693-1.993-2.002-1.993H5.568c-1.27 0-2.011.674-2.011 1.993V13.96h-2.13a.934.934 0 00-.937.947c0 .527.41.947.938.947zm3.34-13.086c0-.732.36-1.093 1.093-1.093h16.621c.723 0 1.094.361 1.094 1.093V13.96H4.768V2.768z"/></symbol><symbol viewBox="0 0 23 21" id="laptop-graduation-cap" xmlns="http://www.w3.org/2000/svg"><path d="M22.474 17.607h-.37V5.715a2.207 2.207 0 00-2.205-2.205h-1.197a.337.337 0 100 .675H19.9c.844 0 1.53.686 1.53 1.53v11.892h-7.542a.694.694 0 00-.575.304l-.1.149a.504.504 0 01-.418.22h-2.633a.504.504 0 01-.417-.22l-.101-.15a.694.694 0 00-.575-.303H5.473a.337.337 0 100 .675h3.595a.02.02 0 01.017.009l.101.148c.22.323.584.516.975.516h2.633c.39 0 .755-.193.975-.516l.101-.148a.02.02 0 01.017-.01h8.438v.366a1.63 1.63 0 01-1.628 1.628H2.303a1.63 1.63 0 01-1.628-1.628v-.365h3.36a.337.337 0 100-.675H1.571V5.715c0-.844.686-1.53 1.53-1.53h.995a.337.337 0 100-.675H3.1A2.207 2.207 0 00.896 5.715v11.892h-.37a.527.527 0 00-.526.526v.514a2.306 2.306 0 002.303 2.303h18.394A2.306 2.306 0 0023 18.647v-.514a.527.527 0 00-.526-.526z"/><path d="M3.101 5.624h2.173a.337.337 0 100-.675H3.101a.766.766 0 00-.765.766v10.79c0 .186.151.337.337.337h17.654a.337.337 0 00.338-.337v-2.856a.337.337 0 10-.675 0v2.518H3.01V5.715c0-.05.041-.09.091-.09zm17.563.091a.766.766 0 00-.765-.766h-1.093a.337.337 0 100 .675H19.9c.05 0 .09.04.09.09v6.497a.337.337 0 10.675 0V5.715z"/><path d="M5.642 4.458l.796.427v3.143c0 1.15.936 2.086 2.086 2.086h5.952c1.15 0 2.086-.936 2.086-2.086V4.86l.49-.262v6.007a1.23 1.23 0 00-.89 1.179 1.228 1.228 0 002.452 0c0-.56-.375-1.032-.888-1.18V3.769a.782.782 0 00-.413-.69L11.848.144a.78.78 0 00-.74 0L5.641 3.078a.782.782 0 000 1.38zm12.298 7.327a.552.552 0 11-1.104-.002.552.552 0 011.104.002zM5.961 3.673L11.427.738a.108.108 0 01.102 0l5.465 2.935c.05.026.057.07.057.095a.104.104 0 01-.057.095L11.53 6.798a.108.108 0 01-.102 0l-1.549-.832a.337.337 0 10-.319.595l1.548.831a.782.782 0 00.741 0l4.04-2.168v2.804c0 .778-.634 1.41-1.412 1.41H8.524a1.413 1.413 0 01-1.41-1.41v-2.78l1.138.611a.337.337 0 10.319-.595l-2.61-1.4a.104.104 0 01-.057-.096c0-.024.008-.069.057-.095z"/></symbol><symbol viewBox="0 0 18 18" id="link" xmlns="http://www.w3.org/2000/svg"><path d="M7.462 13.719l-2.12 2.12a2.249 2.249 0 11-3.183-3.18l4.243-4.243a2.25 2.25 0 013.181 0 .75.75 0 101.06-1.06 3.75 3.75 0 00-5.302 0l-4.243 4.242A3.75 3.75 0 106.402 16.9l2.12-2.121a.75.75 0 10-1.06-1.061z"/><path d="M16.901 1.098a3.75 3.75 0 00-5.303 0L9.053 3.643a.75.75 0 001.06 1.06L12.66 2.16a2.25 2.25 0 013.18 3.18l-4.667 4.667a2.25 2.25 0 01-3.181 0 .75.75 0 10-1.06 1.06 3.75 3.75 0 005.302 0L16.9 6.402a3.75 3.75 0 000-5.303z"/></symbol><symbol viewBox="0 0 13 11" id="list-o" xmlns="http://www.w3.org/2000/svg"><path d="M4.583.917h7.333M4.583 5.5h7.333m-7.333 4.584h7.333M1.333.917a.417.417 0 11-.833 0 .417.417 0 01.833 0zm0 4.583a.417.417 0 11-.833 0 .417.417 0 01.833 0zm0 4.584a.417.417 0 11-.833 0 .417.417 0 01.833 0z"/></symbol><symbol viewBox="0 0 13 15" id="lock" xmlns="http://www.w3.org/2000/svg"><path d="M10.719 5.625h-.469V3.75A3.754 3.754 0 006.5 0a3.754 3.754 0 00-3.75 3.75v1.875h-.469c-.775 0-1.406.63-1.406 1.406v6.563c0 .775.631 1.406 1.406 1.406h8.438c.775 0 1.406-.63 1.406-1.406V7.03c0-.775-.631-1.406-1.406-1.406zM4 3.75c0-1.379 1.121-2.5 2.5-2.5S9 2.371 9 3.75v1.875H4V3.75zm3.125 6.701v1.424a.625.625 0 11-1.25 0v-1.424A1.246 1.246 0 016.5 8.125a1.246 1.246 0 01.625 2.326z"/></symbol><symbol viewBox="0 0 12 15" id="lock-2" xmlns="http://www.w3.org/2000/svg"><path d="M9.844 15H1.406C.631 15 0 14.37 0 13.594V7.03c0-.775.631-1.406 1.406-1.406h8.438c.775 0 1.406.63 1.406 1.406v6.563c0 .775-.631 1.406-1.406 1.406zM1.406 6.562a.47.47 0 00-.468.47v6.562c0 .258.21.469.468.469h8.438a.47.47 0 00.469-.47V7.032a.47.47 0 00-.47-.468H1.407z"/><path d="M8.906 6.563a.469.469 0 01-.469-.47V3.75A2.816 2.816 0 005.626.937 2.816 2.816 0 002.812 3.75v2.344a.469.469 0 01-.937 0V3.75A3.754 3.754 0 015.625 0a3.754 3.754 0 013.75 3.75v2.344c0 .258-.21.468-.469.468zm-3.281 4.062a1.251 1.251 0 010-2.5 1.251 1.251 0 010 2.5zm0-1.563a.313.313 0 10.001.627.313.313 0 00-.001-.627z"/><path d="M5.625 12.5a.469.469 0 01-.469-.469v-1.719a.469.469 0 01.938 0v1.72c0 .258-.21.468-.469.468z"/></symbol><symbol viewBox="0 0 16 8" id="long-arrow-right" xmlns="http://www.w3.org/2000/svg"><path d="M15.907 3.76L12.352.52a.297.297 0 00-.324-.047.269.269 0 00-.176.269v2.074H.296a.288.288 0 00-.213.083.289.289 0 00-.083.213V4.89c0 .086.028.157.083.212a.289.289 0 00.213.084h11.556V7.26c0 .123.059.213.176.268.117.05.225.031.324-.055l3.556-3.278a.303.303 0 000-.435z"/></symbol><symbol viewBox="0 0 21 10" id="long-arrow-right-2" xmlns="http://www.w3.org/2000/svg"><path d="M20.76 4.43l-.001-.002L16.472.235a.83.83 0 00-1.16.003.797.797 0 00.003 1.14l2.878 2.816H.82A.813.813 0 000 5c0 .445.367.806.82.806h17.373l-2.878 2.816a.797.797 0 00-.003 1.14.83.83 0 001.16.003l4.287-4.193V5.57a.798.798 0 000-1.142z"/></symbol><symbol viewBox="0 0 125 24" id="long-arrow-right-3" xmlns="http://www.w3.org/2000/svg"><path d="M124.061 13.092a1.501 1.501 0 000-2.121l-9.546-9.546a1.5 1.5 0 00-2.122 2.121l8.486 8.485-8.486 8.486a1.501 1.501 0 002.122 2.121l9.546-9.546zM0 13.532h123v-3H0v3z"/></symbol><symbol viewBox="0 0 16 12" id="mail" xmlns="http://www.w3.org/2000/svg"><path d="M7.839 7.063c.273 0 .52-.13.807-.41l5.625-5.579c-.239-.232-.69-.342-1.326-.342H2.527c-.54 0-.93.103-1.148.315l5.66 5.605c.28.28.533.41.8.41zM.819 10.89l4.593-4.553-4.6-4.54c-.11.192-.165.514-.165.972v7.143c0 .458.055.786.171.978zm14.033-.014c.103-.192.158-.513.158-.964V2.77c0-.445-.055-.766-.158-.958l-4.586 4.526 4.586 4.539zM2.712 11.95H13.13c.554 0 .936-.11 1.155-.314L9.603 6.987l-.424.424c-.445.424-.868.629-1.34.629-.472 0-.896-.205-1.34-.629l-.424-.424-4.669 4.635c.246.219.684.328 1.306.328z"/></symbol><symbol viewBox="0 0 12 14" id="map-pin" xmlns="http://www.w3.org/2000/svg"><path d="M6.08.143A5.23 5.23 0 00.858 5.366c0 1.14.36 2.223 1.042 3.131l3.86 5.198c.01.013.024.018.035.029a.389.389 0 00.608-.029c1.112-1.483 3.149-4.252 3.932-5.297v-.001l.005-.007a5.186 5.186 0 00.965-3.024A5.23 5.23 0 006.08.143zm0 8.04a2.825 2.825 0 01-2.817-2.817A2.825 2.825 0 016.08 2.548a2.825 2.825 0 012.817 2.818A2.825 2.825 0 016.08 8.184z"/></symbol><symbol viewBox="0 0 11 16" id="map-pin-2" xmlns="http://www.w3.org/2000/svg"><path d="M5.5.18A5.506 5.506 0 000 5.68c0 1.024.284 2.024.821 2.892l4.366 7.036a.458.458 0 00.39.216h.003a.458.458 0 00.39-.223l4.254-7.103c.508-.85.776-1.824.776-2.818C11 2.647 8.533.18 5.5.18zm3.938 7.847l-3.869 6.458L1.6 8.09a4.578 4.578 0 01-.69-2.41A4.599 4.599 0 015.5 1.09a4.596 4.596 0 014.586 4.59 4.58 4.58 0 01-.648 2.347z"/><path d="M5.5 2.93a2.753 2.753 0 00-2.75 2.75A2.746 2.746 0 005.5 8.43c1.555 0 2.75-1.26 2.75-2.75A2.753 2.753 0 005.5 2.93zm0 4.59a1.84 1.84 0 01-1.84-1.84c0-1.011.83-1.84 1.84-1.84 1.01 0 1.836.829 1.836 1.84 0 .998-.804 1.84-1.836 1.84z"/></symbol><symbol viewBox="0 0 24 25" id="messenger" xmlns="http://www.w3.org/2000/svg"><path d="M0 11.945c0 3.496 1.744 6.615 4.471 8.652v4.237l4.086-2.242a12.92 12.92 0 003.442.465c6.627 0 12-4.974 12-11.111C24 5.809 18.627.834 12 .834 5.373.834 0 5.808 0 11.945zm10.734-3.112l3.13 3.259 5.887-3.259-6.56 6.962-3.055-3.258-5.963 3.259 6.561-6.963z"/></symbol><symbol viewBox="0 0 20 31" id="microphone" xmlns="http://www.w3.org/2000/svg"><path d="M19.6 16.285c0-.6-.46-1.059-1.06-1.059-.6 0-1.058.46-1.058 1.06a7.486 7.486 0 01-7.483 7.482 7.486 7.486 0 01-7.482-7.483c0-.6-.459-1.059-1.059-1.059-.6 0-1.059.46-1.059 1.06 0 4.905 3.671 9.034 8.542 9.564v2.823H5.094c-.6 0-1.06.46-1.06 1.06 0 .6.46 1.058 1.06 1.058h9.811c.6 0 1.06-.459 1.06-1.059 0-.6-.46-1.058-1.06-1.058h-3.847V25.85c4.87-.53 8.541-4.659 8.541-9.565z"/><path d="M10 .791a5.905 5.905 0 00-5.895 5.894v9.565c0 3.282 2.648 5.894 5.895 5.93a5.905 5.905 0 005.894-5.895v-9.6A5.905 5.905 0 0010 .791z"/></symbol><symbol viewBox="0 0 14 14" id="pen" xmlns="http://www.w3.org/2000/svg"><path d="M13.64 2.101L11.9.361A1.224 1.224 0 0011.03 0h-.001c-.33 0-.638.128-.87.36L1.282 9.237c-.073.074-.103.18-.124.246L.017 13.477a.41.41 0 00.507.507l3.991-1.14c.012-.003.188-.064.25-.125l8.876-8.877c.232-.232.36-.541.36-.87 0-.33-.128-.639-.36-.87zM1.01 12.992l.766-2.682 1.916 1.916-2.682.766zm3.465-1.144L2.152 9.527 9.288 2.39l2.322 2.322-7.136 7.135zm8.587-8.586l-.871.87-2.322-2.321.871-.871a.407.407 0 01.29-.12c.11 0 .213.043.29.12l1.741 1.742c.16.16.16.42 0 .58z"/></symbol><symbol viewBox="0 0 29 29" id="pen-2" xmlns="http://www.w3.org/2000/svg"><g clip-path="url(#cha)"><path d="M.68 27.488a.823.823 0 00.208.804.83.83 0 00.58.24.77.77 0 00.225-.032l7.645-2.182-6.475-6.475L.68 27.488z"/><path d="M1.469 28.56a.84.84 0 01-.81-1.078l2.199-7.689 6.54 6.54-7.7 2.194a.828.828 0 01-.23.033zm1.41-8.668L.71 27.493a.79.79 0 00.979.973l7.601-2.17-6.41-6.404zm24.998-15.11L24.404 1.31A2.457 2.457 0 0022.66.588c-.656 0-1.274.257-1.74.716l-1.738 1.74 6.95 6.95 1.74-1.739a2.44 2.44 0 00.716-1.74 2.421 2.421 0 00-.711-1.733z"/><path d="M26.139 10.032l-6.99-6.989 1.756-1.755A2.465 2.465 0 0122.66.56c.668 0 1.291.257 1.756.727l3.473 3.473c.47.47.727 1.093.727 1.755 0 .667-.257 1.29-.727 1.755l-1.75 1.761zm-6.913-6.989l6.913 6.913 1.717-1.717a2.41 2.41 0 00.71-1.718 2.41 2.41 0 00-.71-1.717l-3.473-3.478a2.42 2.42 0 00-1.723-.71c-.65 0-1.258.25-1.717.71l-1.717 1.717zM3.786 18.444L18.028 4.202l6.953 6.952-14.242 14.242-6.953-6.952z"/><path d="M10.739 25.438l-6.995-6.994L18.03 4.164l6.989 6.99-14.28 14.284zm-6.913-6.994l6.913 6.912L24.94 11.154 18.029 4.24 3.826 18.444z"/></g><defs><clipPath id="cha"><path transform="translate(.625 .56)" d="M0 0h28v28H0z"/></clipPath></defs></symbol><symbol viewBox="0 0 15 14" id="phone" xmlns="http://www.w3.org/2000/svg"><path d="M4.484 10.023c2.149 2.157 4.766 3.82 6.899 3.82.96 0 1.805-.335 2.476-1.085.391-.438.633-.945.633-1.445 0-.383-.14-.75-.5-1l-2.273-1.61c-.344-.25-.64-.367-.906-.367-.336 0-.641.195-.977.531l-.531.524a.38.38 0 01-.282.109.7.7 0 01-.304-.078C8.266 9.18 7.477 8.5 6.742 7.773c-.726-.734-1.406-1.515-1.648-1.976a.694.694 0 01-.078-.297.38.38 0 01.109-.281l.523-.54c.336-.335.532-.64.532-.984 0-.265-.125-.554-.367-.906L4.218.547A1.26 1.26 0 003.172.023c-.492 0-.992.227-1.43.641C1.016 1.36.703 2.211.703 3.156c0 2.14 1.633 4.727 3.781 6.867z"/></symbol><symbol viewBox="0 0 23 23" id="piggy-bank" xmlns="http://www.w3.org/2000/svg"><path d="M21.414 10.303a.45.45 0 100 .898.689.689 0 010 1.375h-.852a8.143 8.143 0 00-1.271-3.95 8.197 8.197 0 00-3.029-2.807A4.812 4.812 0 0011.5.361a4.812 4.812 0 00-4.796 5.116l-.024.01-1.99-1.155a.809.809 0 00-.818 0 .809.809 0 00-.41.707v2.88a8.105 8.105 0 00-1.343 2.434h-.872c-.688 0-1.247.559-1.247 1.246v2.853c0 .687.56 1.246 1.247 1.246h.872c.554 1.6 1.602 3 2.987 3.988v2c0 .525.428.953.954.953h1.673a.95.95 0 00.848-.517l.492-.957c.258.024.518.036.774.036h2.551c.257 0 .517-.012.774-.036l.493.957a.95.95 0 00.848.517h1.673a.955.955 0 00.954-.953v-2a8.166 8.166 0 003.421-6.211h.853c.874 0 1.586-.712 1.586-1.586 0-.875-.712-1.586-1.586-1.586zM11.5 1.26a3.913 3.913 0 013.908 3.908 3.88 3.88 0 01-.517 1.943 7.024 7.024 0 00-2.06-.738c.101-.189.159-.402.159-.627 0-.769-.668-1.394-1.49-1.394-.326 0-.592-.222-.592-.495s.266-.495.592-.495c.326 0 .592.222.592.495a.45.45 0 00.898 0c0-.622-.438-1.15-1.04-1.329v-.063a.45.45 0 00-.9 0v.063c-.602.179-1.04.707-1.04 1.329 0 .768.668 1.394 1.49 1.394.326 0 .592.222.592.495s-.266.495-.592.495c-.326 0-.592-.222-.592-.495a.45.45 0 00-.898 0c0 .226.058.44.16.629a7.022 7.022 0 00-2.059.74 3.878 3.878 0 01-.52-1.947A3.913 3.913 0 0111.5 1.26zm4.94 17.818a.45.45 0 00-.199.373v2.234c0 .03-.024.055-.055.055h-1.674a.055.055 0 01-.048-.03l-.635-1.232a.449.449 0 00-.458-.24c-.322.043-.65.065-.973.065h-2.55c-.323 0-.65-.022-.973-.065a.449.449 0 00-.459.24l-.634 1.233a.055.055 0 01-.049.03H6.06a.055.055 0 01-.055-.056v-2.234a.45.45 0 00-.2-.373 7.301 7.301 0 01-2.929-3.958.45.45 0 00-.43-.32h-1.2a.349.349 0 01-.348-.348v-.977h.63a.45.45 0 000-.899h-.63V11.6a.35.35 0 01.349-.348h1.2a.45.45 0 00.43-.32 7.22 7.22 0 011.38-2.564.45.45 0 00.104-.288v-2.9l2.065 1.198a.45.45 0 00.411.02l.014-.006c.11.422.279.826.502 1.206-.291.212-.57.449-.832.711a.45.45 0 00.635.636 6.158 6.158 0 018.699 0 .448.448 0 10.635-.636 7.066 7.066 0 00-.84-.717c.162-.276.295-.564.397-.864a7.329 7.329 0 013.629 6.297 7.271 7.271 0 01-3.235 6.053z"/><path d="M5.556 9.881a.45.45 0 100 .9.45.45 0 000-.9z"/></symbol><symbol viewBox="0 0 11 13" id="play" xmlns="http://www.w3.org/2000/svg"><path d="M9.585 5.416L2.498 1.047A1.619 1.619 0 00.84 1.012 1.62 1.62 0 000 2.442v8.699c0 .91.734 1.655 1.635 1.66h.008c.281 0 .575-.089.85-.256a.468.468 0 10-.488-.799.719.719 0 01-.365.119.727.727 0 01-.704-.724V2.443c0-.259.134-.488.36-.614a.694.694 0 01.711.015l7.088 4.369a.69.69 0 01.334.6.69.69 0 01-.338.599L3.967 10.55a.468.468 0 00.489.798L9.58 8.21c.49-.299.784-.82.785-1.395a1.628 1.628 0 00-.78-1.399z"/></symbol><symbol viewBox="0 0 10 10" id="play-circle" xmlns="http://www.w3.org/2000/svg"><path d="M5 0C2.243 0 0 2.243 0 5s2.243 5 5 5 5-2.243 5-5-2.243-5-5-5zm0 9.225A4.23 4.23 0 01.775 5 4.23 4.23 0 015 .775 4.23 4.23 0 019.225 5 4.23 4.23 0 015 9.225z"/><path d="M6.474 4.803L4.398 3.294A.25.25 0 004 3.496v3.018a.25.25 0 00.398.202l2.076-1.509a.249.249 0 000-.404z"/></symbol><symbol viewBox="0 0 33 40" id="play-o" xmlns="http://www.w3.org/2000/svg"><path clip-rule="evenodd" d="M31.287 19.49a1 1 0 010 1.703L2.227 39.078a1 1 0 01-1.525-.852V2.456a1 1 0 011.524-.851l29.06 17.885z"/></symbol><symbol viewBox="0 0 39 39" id="playlist" xmlns="http://www.w3.org/2000/svg"><path d="M31.2 11.7H0v5.2h31.2v-5.2zm0-10.4H0v5.2h31.2V1.3zM20.8 22.102H0v5.2h20.8v-5.2zm5.2 0v15.6l13-7.8-13-7.8z"/></symbol><symbol viewBox="0 0 16 16" id="playlist-o" xmlns="http://www.w3.org/2000/svg"><path d="M5.715 5.713h9.142M1.144 1.143h13.713m-2.286 9.144h2.286M8 14.858h6.857M1.144 14.855v-8l7.428 4-7.428 4z"/></symbol><symbol viewBox="0 0 13 13" id="plus-o" xmlns="http://www.w3.org/2000/svg"><path d="M11.667 6.335H1M6.333 1v10.667"/></symbol><symbol viewBox="0 0 24 24" id="quality" xmlns="http://www.w3.org/2000/svg"><g clip-path="url(#cqa)"><path d="M14.714 9.77l-3.606 3.405-1.73-1.78a.499.499 0 10-.716.695l2.076 2.13a.507.507 0 00.705.016l3.967-3.741a.499.499 0 00.02-.706.51.51 0 00-.716-.02z"/><path d="M12.039 4.527A7.48 7.48 0 004.566 12c0 4.121 3.351 7.472 7.473 7.472 4.121 0 7.472-3.351 7.472-7.472 0-4.122-3.35-7.473-7.472-7.473zm0 13.945A6.48 6.48 0 015.567 12a6.48 6.48 0 016.472-6.472 6.472 6.472 0 110 12.944z"/><path d="M22.323 9.25l.165-2.966a.499.499 0 00-.276-.475l-2.64-1.335-1.336-2.641a.507.507 0 00-.475-.275l-2.971.16L12.314.082a.5.5 0 00-.55 0L9.288 1.718l-2.965-.165a.498.498 0 00-.476.275L4.512 4.47l-2.64 1.335a.507.507 0 00-.276.476l.165 2.966L.125 11.72a.5.5 0 000 .55l1.631 2.481-.165 2.966c-.012.2.096.386.275.475l2.64 1.336 1.336 2.64a.51.51 0 00.475.276l2.966-.166 2.476 1.636a.487.487 0 00.55 0l2.476-1.636 2.966.166a.5.5 0 00.475-.276l1.336-2.64 2.64-1.336a.507.507 0 00.276-.475l-.166-2.966 1.636-2.476a.5.5 0 000-.55L22.323 9.25zm-.93 5.092a.47.47 0 00-.08.305l.154 2.806-2.496 1.26a.494.494 0 00-.22.22l-1.26 2.496-2.806-.155a.546.546 0 00-.305.08L12.04 22.9l-2.341-1.546a.495.495 0 00-.276-.085h-.025l-2.805.155-1.26-2.496a.493.493 0 00-.221-.22l-2.5-1.255.154-2.806a.547.547 0 00-.08-.305l-1.545-2.34L2.686 9.66a.468.468 0 00.08-.304L2.611 6.55l2.496-1.26a.493.493 0 00.22-.22l1.26-2.497 2.806.155a.549.549 0 00.306-.08l2.34-1.545 2.34 1.545a.47.47 0 00.306.08l2.806-.155 1.26 2.496a.494.494 0 00.22.22l2.496 1.26-.155 2.807a.548.548 0 00.08.304l1.546 2.341-1.546 2.341z"/></g><defs><clipPath id="cqa"><path d="M0 0h24v24H0z"/></clipPath></defs></symbol><symbol viewBox="0 0 19 27" id="question" xmlns="http://www.w3.org/2000/svg"><path d="M6.719 21.92h5.238V27H6.719v-5.08zM3.8 2.162C5.184 1.272 6.883.826 8.898.826c2.649 0 4.846.633 6.592 1.899 1.758 1.265 2.637 3.14 2.637 5.625 0 1.523-.38 2.806-1.143 3.85-.445.632-1.3 1.44-2.566 2.425l-1.248.967c-.68.527-1.13 1.142-1.354 1.845-.14.446-.216 1.137-.228 2.075H6.842c.07-1.98.258-3.346.562-4.096.305-.762 1.09-1.635 2.356-2.62l1.283-1.001a4.484 4.484 0 001.02-1.037 3.536 3.536 0 00.703-2.127c0-.89-.264-1.7-.791-2.426-.516-.738-1.465-1.107-2.848-1.107-1.36 0-2.326.45-2.9 1.353-.563.903-.844 1.84-.844 2.813H.303c.14-3.34 1.306-5.707 3.498-7.102z"/></symbol><symbol viewBox="0 0 24 24" id="question-circle" xmlns="http://www.w3.org/2000/svg"><path d="M24 12c0 6.629-5.373 12-12 12S0 18.629 0 12C0 5.375 5.373 0 12 0s12 5.375 12 12zM12.322 3.968c-2.637 0-4.319 1.11-5.64 3.085a.581.581 0 00.132.786l1.679 1.274a.58.58 0 00.806-.103c.865-1.096 1.457-1.732 2.773-1.732.989 0 2.211.636 2.211 1.595 0 .724-.598 1.096-1.574 1.644-1.138.638-2.644 1.432-2.644 3.418v.194c0 .32.26.58.58.58h2.71c.32 0 .58-.26.58-.58v-.064c0-1.378 4.026-1.435 4.026-5.162 0-2.806-2.912-4.935-5.639-4.935zm-.322 12a2.228 2.228 0 00-2.226 2.226c0 1.227.999 2.225 2.226 2.225a2.228 2.228 0 002.226-2.226A2.228 2.228 0 0012 15.969z"/></symbol><symbol viewBox="0 0 18 20" id="sack-dollar" xmlns="http://www.w3.org/2000/svg"><path d="M10.36 13.285a.947.947 0 00-.266-.194 3.218 3.218 0 00-.676-.239v1.79c.375-.043.805-.179 1.002-.529a.817.817 0 00.074-.558.562.562 0 00-.133-.27zm.056.832l.002-.004-.002.004zM7.66 10.425a.754.754 0 00-.078.662.557.557 0 00.217.239c.1.067.21.12.321.165.094.038.2.074.314.11V9.98c-.288.062-.602.193-.774.444zm2.765 3.675z"/><path d="M10.047 4.352C11.57 3.074 12.585.194 11.96.068c-.832-.167-2.637.567-3.51.696-1.236.15-2.583-1.342-3.34-.51-.615.675.44 3.133 2.093 4.204-4.93 2.423-11.858 14.586.23 15.469 16.726 1.221 8.35-13.214 2.615-15.575zm1.437 9.592a1.758 1.758 0 01-.679 1.194c-.396.308-.894.45-1.388.49v.525c0 .14-.061.275-.166.368a.496.496 0 01-.531.079.496.496 0 01-.287-.447v-.573a3.194 3.194 0 01-.252-.058 2.415 2.415 0 01-1.203-.74 2.168 2.168 0 01-.433-.791c-.016-.055-.033-.11-.038-.167a.492.492 0 01.956-.204c.019.057.031.115.052.17a1.253 1.253 0 00.292.438c.174.168.395.277.626.342v-1.947c-.451-.117-.917-.268-1.29-.557a1.5 1.5 0 01-.435-.524 1.637 1.637 0 01-.152-.704 1.678 1.678 0 01.55-1.267c.363-.333.844-.52 1.327-.588V8.44a.5.5 0 01.166-.37.496.496 0 01.532-.078c.172.08.286.257.286.447v.541c.064.008.129.018.192.03.475.085.938.281 1.285.623a1.877 1.877 0 01.463.745c.018.057.037.116.046.176a.493.493 0 01-.946.248c-.02-.053-.03-.11-.052-.164a.939.939 0 00-.313-.399 1.594 1.594 0 00-.675-.263v1.862c.284.068.568.143.84.25.412.162.801.41 1.026.803a.691.691 0 00.001.002c.069.12.036.063.001.002.179.315.238.692.199 1.05zm-1.072.182l-.008.013.008-.013z"/></symbol><symbol viewBox="0 0 14 10" id="salary" xmlns="http://www.w3.org/2000/svg"><path d="M13.795.898H1.845a.205.205 0 00-.204.206v.615h-.616a.205.205 0 00-.205.205v.615H.205A.205.205 0 000 2.744v6.152c0 .114.092.206.205.206h11.95a.205.205 0 00.204-.206v-.615h.616a.205.205 0 00.205-.205v-.615h.615A.205.205 0 0014 7.256V1.104a.205.205 0 00-.205-.206zm-1.846 7.793H.41V2.95h.41v5.127c0 .113.092.205.205.205H11.95v.41zm.82-.82H1.23V2.13h.41v5.127c0 .113.092.205.206.205H12.77v.41zm.82-.82H2.052V1.309H13.59V7.05z"/><path d="M3.486 6.64h8.668c.566 0 1.026-.46 1.026-1.025v-2.87c0-.566-.46-1.026-1.026-1.026H3.486c-.565 0-1.025.46-1.025 1.025V3.77a.205.205 0 10.41 0V2.744c0-.34.276-.615.615-.615h3.096c-.51.379-.84.986-.84 1.668v.765c0 .683.33 1.29.84 1.668H3.486a.616.616 0 01-.615-.615V4.59a.205.205 0 10-.41 0v1.025c0 .566.46 1.026 1.025 1.026zm8.668-4.511c.34 0 .616.276.616.615v2.871c0 .34-.276.615-.616.615H9.058c.51-.379.84-.985.84-1.668v-.765c0-.682-.33-1.289-.84-1.668h3.096zM6.152 4.562v-.765c0-.92.749-1.668 1.668-1.668.92 0 1.668.748 1.668 1.668v.765A1.67 1.67 0 017.82 6.23a1.67 1.67 0 01-1.668-1.668z"/><path d="M9.078 3.797A1.26 1.26 0 007.82 2.539a1.26 1.26 0 00-1.258 1.258v.765A1.26 1.26 0 007.82 5.82a1.26 1.26 0 001.258-1.258v-.765zm-.41.765a.849.849 0 01-1.695 0v-.765a.849.849 0 011.695 0v.765zm-4.361.645a1.027 1.027 0 000-2.05 1.027 1.027 0 000 2.05zm0-1.64a.616.616 0 11-.002 1.231.616.616 0 01.002-1.232zm7.027 1.64a1.027 1.027 0 000-2.05 1.027 1.027 0 000 2.05zm0-1.64a.616.616 0 11-.001 1.231.616.616 0 01.001-1.232z"/></symbol><symbol viewBox="0 0 20 21" id="search" xmlns="http://www.w3.org/2000/svg"><g clip-path="url(#cva)"><path d="M8.75 18.495C3.925 18.495 0 14.57 0 9.745S3.925.995 8.75.995s8.75 3.925 8.75 8.75-3.925 8.75-8.75 8.75zm0-15a6.257 6.257 0 00-6.25 6.25 6.257 6.257 0 006.25 6.25A6.257 6.257 0 0015 9.745a6.257 6.257 0 00-6.25-6.25zm10.884 15.366l-2.992-2.99a10.023 10.023 0 01-1.767 1.767l2.991 2.99a1.248 1.248 0 002.039-1.361 1.25 1.25 0 00-.271-.406z"/></g><defs><clipPath id="cva"><path transform="translate(0 .995)" d="M0 0h20v20H0z"/></clipPath></defs></symbol><symbol viewBox="0 0 12 12" id="search-2" xmlns="http://www.w3.org/2000/svg"><path d="M11.887 11.347L8.79 8.298a4.9 4.9 0 001.31-3.33C10.099 2.224 7.839 0 5.049 0 2.262 0 .002 2.224.002 4.968c0 2.745 2.26 4.969 5.049 4.969 1.204 0 2.31-.417 3.177-1.11l3.11 3.061c.152.15.398.15.55 0a.378.378 0 000-.54zM5.05 9.172C2.69 9.172.778 7.29.778 4.968.778 2.647 2.69.764 5.05.764c2.359 0 4.272 1.883 4.272 4.204 0 2.322-1.913 4.204-4.272 4.204z"/></symbol><symbol viewBox="0 0 21 21" id="slack-hash" xmlns="http://www.w3.org/2000/svg"><g clip-path="url(#cxa)"><path d="M20.193 14.367a1.87 1.87 0 00-1.885-1.856l-1.982.016-.032-4.14 1.982-.016a1.87 1.87 0 10-.028-3.741l-1.982.015-.016-1.982a1.87 1.87 0 10-3.74.03l.016 1.981-4.14.032-.014-1.982a1.87 1.87 0 00-3.741.028l.015 1.983L2.6 4.75A1.87 1.87 0 00.807 6.57c-.027 1.032.795 1.927 1.82 1.92l2.046-.017.031 4.14-2.045.017a1.872 1.872 0 00-1.793 1.82c-.027 1.032.795 1.928 1.82 1.92l2.047-.016.016 2.045c.04.975.83 1.766 1.82 1.793 1.032.026 1.928-.795 1.92-1.82l-.015-2.046 4.14-.032.016 2.046c.04.975.83 1.765 1.82 1.793 1.032.026 1.928-.795 1.92-1.82l-.016-2.046 1.982-.016a1.871 1.871 0 001.856-1.885zm-11.747-1.78l-.032-4.14 4.14-.032.032 4.14-4.14.032z"/></g><defs><clipPath id="cxa"><path d="M0 0h21v21H0z"/></clipPath></defs></symbol><symbol viewBox="0 0 16 17" id="sort-amount-up" xmlns="http://www.w3.org/2000/svg"><g clip-path="url(#cya)"><path d="M8.465 15.184v.53a.531.531 0 01-.531.532H.53a.531.531 0 01-.53-.531v-.531a.53.53 0 01.531-.531h7.403a.53.53 0 01.531.53zm-1.529-2.286H.531a.531.531 0 01-.531-.53v-.532c0-.293.238-.531.531-.531h6.405c.294 0 .532.238.532.531v.531a.531.531 0 01-.532.531zm-.997-3.343H.53A.531.531 0 010 9.024v-.532a.53.53 0 01.531-.53H5.94a.53.53 0 01.531.53v.532a.531.531 0 01-.531.53zm-.998-3.719H.531A.531.531 0 010 5.305v-.531c0-.294.238-.532.531-.532h4.41a.53.53 0 01.531.532v.53a.531.531 0 01-.53.532zm-.997-3.348H.53a.531.531 0 01-.53-.53v-.532C0 1.133.238.895.531.895h3.413a.53.53 0 01.53.53v.532a.531.531 0 01-.53.531zm11.901 2.437l-.376.375a.531.531 0 01-.751 0L12.89 3.473V15.45a.531.531 0 01-.531.531h-.532a.531.531 0 01-.53-.53V3.472L9.47 5.3a.531.531 0 01-.75 0l-.376-.375a.531.531 0 010-.752L11.718.8a.53.53 0 01.752 0l3.374 3.374a.531.531 0 010 .752z"/></g><defs><clipPath id="cya"><path transform="matrix(1 0 0 -1 0 16.445)" d="M0 0h16v16H0z"/></clipPath></defs></symbol><symbol viewBox="0 0 16 14" id="star" xmlns="http://www.w3.org/2000/svg"><path d="M8.475.295l1.98 4.01 4.425.643a.53.53 0 01.293.903L11.97 8.97l.756 4.409a.53.53 0 01-.768.558L8 11.858l-3.959 2.08a.53.53 0 01-.768-.558l.756-4.408L.827 5.85a.53.53 0 01.293-.903l4.425-.643 1.98-4.01a.53.53 0 01.95 0z"/></symbol><symbol viewBox="0 0 16 16" id="thumbs-up-o" xmlns="http://www.w3.org/2000/svg"><path d="M3.5 15.5h-3v-7h3m0 0l3-8h1a1 1 0 011 1v5h4.999a2 2 0 011.927 2.535l-1.389 5A2 2 0 0112.11 15.5H3.5v-7z"/></symbol><symbol viewBox="0 0 24 24" id="times-circle" xmlns="http://www.w3.org/2000/svg"><path d="M12 0C5.371 0 0 5.371 0 12s5.371 12 12 12 12-5.371 12-12S18.629 0 12 0zm5.884 15.15a.581.581 0 010 .823l-1.916 1.91a.581.581 0 01-.823 0L12 14.71l-3.15 3.174a.581.581 0 01-.823 0l-1.91-1.916a.581.581 0 010-.823L9.29 12 6.116 8.85a.581.581 0 010-.823l1.916-1.916a.581.581 0 01.823 0L12 9.291l3.15-3.175a.581.581 0 01.823 0l1.916 1.916a.581.581 0 010 .823L14.709 12l3.175 3.15z"/></symbol><symbol viewBox="0 0 23 23" id="truck-free" xmlns="http://www.w3.org/2000/svg"><path d="M21.39 12.89l-.596-2.383a.36.36 0 00.285-.352v-.384c0-.834-.678-1.512-1.512-1.512h-2.713v-.793a.745.745 0 00-.744-.744h-5.045l3.066-1.226a.36.36 0 10-.268-.669l-2.51 1.004c.765-.49 1.522-1.03 1.81-1.408a1.68 1.68 0 00-.317-2.351 1.68 1.68 0 00-2.35.316c-.41.538-.95 2.048-1.3 3.112-.35-1.064-.891-2.574-1.301-3.112a1.68 1.68 0 00-2.35-.316 1.68 1.68 0 00-.317 2.35c.288.378 1.044.918 1.81 1.41l-2.51-1.005a.36.36 0 10-.268.669l3.065 1.226H2.281a.745.745 0 00-.744.744v6.53a.36.36 0 10.72 0v-6.53c0-.013.01-.024.024-.024H16.11c.013 0 .024.011.024.024v6.53a.36.36 0 10.72 0v-.408h4.25c.523.001.967.344 1.12.817h-1.12a.36.36 0 00-.36.36v.768a1.13 1.13 0 001.128 1.129h.408v1.584h-.942a2.284 2.284 0 00-2.155-1.536c-.997 0-1.846.643-2.156 1.536h-.173v-2.713a.36.36 0 10-.72 0v2.713H8.662a2.284 2.284 0 00-2.156-1.536c-.997 0-1.846.643-2.155 1.536H2.28a.024.024 0 01-.024-.024v-.792h1.56a.36.36 0 000-.72H.36a.36.36 0 100 .72h1.177v.792c0 .41.333.744.744.744h1.945v.024a2.283 2.283 0 002.28 2.281 2.283 2.283 0 002.281-2.28v-.025h8.115v.024a2.283 2.283 0 002.28 2.281 2.283 2.283 0 002.281-2.28v-.025h1.177a.36.36 0 00.36-.36v-3.841a1.9 1.9 0 00-1.61-1.875zM7.767 5.438C6.347 4.556 5.925 4.15 5.8 3.986a.958.958 0 011.522-1.16c.348.456.894 1.993 1.254 3.101-.243-.143-.522-.31-.809-.489zm2.047.49c.36-1.109.906-2.646 1.254-3.103a.958.958 0 011.522 1.16c-.125.164-.546.57-1.966 1.453a41.57 41.57 0 01-.81.49zm7.04 3.05h2.713c.437 0 .792.356.792.793v.024h-3.505V8.98zm0 3.89v-2.353h3.2l.588 2.353h-3.788zM6.506 20.551c-.86 0-1.56-.7-1.56-1.56 0-.861.7-1.561 1.56-1.561.86 0 1.56.7 1.56 1.56 0 .86-.7 1.56-1.56 1.56zm12.677 0c-.86 0-1.56-.7-1.56-1.56 0-.861.7-1.561 1.56-1.561.86 0 1.56.7 1.56 1.56 0 .86-.7 1.56-1.56 1.56zm3.097-4.61h-.408a.409.409 0 01-.409-.408v-.408h.817v.816z"/><path d="M6.507 18.246a.745.745 0 10.002 1.49.745.745 0 00-.002-1.49zm12.676 0a.745.745 0 10.001 1.49.745.745 0 00-.001-1.49zm-4.225-1.536H9.58a.36.36 0 100 .72h5.378a.36.36 0 100-.72zm-9.22-1.537h-4.61a.36.36 0 100 .72h4.61a.36.36 0 000-.72zm0-5.378H4.202a.36.36 0 00-.36.36v3.073a.36.36 0 00.72 0v-1.176h.792a.36.36 0 000-.72h-.792v-.817h1.176a.36.36 0 100-.72zm2.834 2.425a1.32 1.32 0 00-.721-2.425h-.96a.36.36 0 00-.36.36v3.073a.36.36 0 00.72 0v-.792h.6l.66.992a.36.36 0 10.6-.4l-.539-.807zm-.721-.504h-.6v-1.2h.6a.6.6 0 010 1.2zm3.649 1.152h-1.177v-.817l.024.001h.768a.36.36 0 100-.72h-.792v-.817h1.176a.36.36 0 100-.72H9.963a.36.36 0 00-.36.36v3.073c0 .2.16.36.36.36h1.536a.36.36 0 100-.72zm2.689 0h-1.177v-.816h.408a.36.36 0 100-.72h-.408v-.817h1.177a.36.36 0 100-.72h-1.537a.36.36 0 00-.36.36v3.073c0 .2.161.36.36.36h1.537a.36.36 0 100-.72z"/></symbol><symbol viewBox="0 0 20 20" id="university" xmlns="http://www.w3.org/2000/svg"><path d="M20 6.743V4.608L10 0 0 4.608v2.135h20zM9.98 1.931c.99 0 1.796.806 1.796 1.796s-.805 1.795-1.796 1.795a1.797 1.797 0 010-3.591z"/><path d="M9.981 4.35a.625.625 0 10-.001-1.249.625.625 0 00.001 1.25zm9.511 9.48h-1.505V7.916H14.18v5.916h-2.296V7.915H8.077v5.916H5.78V7.915H1.974v5.916H.938v2.236h18.554v-2.236zM0 17.24h20v2.724H0v-2.725z"/></symbol><symbol viewBox="0 0 16 16" id="users" xmlns="http://www.w3.org/2000/svg"><g clip-path="url(#dea)"><path d="M12.971 7.818a3.993 3.993 0 00-4.968-6.233 3.994 3.994 0 00-4.974 6.233A5.675 5.675 0 000 12.86v1.714a.57.57 0 00.571.571H15.43a.571.571 0 00.571-.571V12.86a5.675 5.675 0 00-3.029-5.043zm-2.685-5.814a2.853 2.853 0 011.174 5.454l-.133.058a2.802 2.802 0 01-.434.135l-.087.015a2.86 2.86 0 01-.503.051c-.076 0-.152-.005-.228-.012-.029 0-.057 0-.086-.006a2.887 2.887 0 01-.934-.275c-.011-.006-.024-.005-.034-.01-.058-.027-.115-.051-.166-.082l.012-.018c.262-.336.469-.713.612-1.114l.018-.048a4.03 4.03 0 00.152-.588l.013-.089c.033-.203.05-.409.052-.614a4.02 4.02 0 00-.052-.613l-.013-.089a4.031 4.031 0 00-.152-.588l-.018-.048a4.01 4.01 0 00-.612-1.115l-.012-.018a2.839 2.839 0 011.43-.386zM2.857 4.86a2.85 2.85 0 014.92-1.967c.098.103.189.212.271.328.025.036.048.074.071.11.08.123.15.252.21.386.014.032.025.066.038.098.06.148.107.301.142.457.004.017.005.035.008.052.073.355.073.72 0 1.076-.003.017-.004.035-.008.052a2.811 2.811 0 01-.142.457c-.013.032-.024.066-.038.098a2.82 2.82 0 01-.21.385c-.023.037-.046.074-.071.11a2.93 2.93 0 01-.369.426 2.852 2.852 0 01-1.353.72c-.036.009-.073.013-.11.02a2.835 2.835 0 01-.47.047h-.063a2.832 2.832 0 01-.47-.047c-.037-.007-.074-.011-.11-.02a2.874 2.874 0 01-.424-.13l-.14-.058a2.857 2.857 0 01-1.682-2.6zm7.429 9.143H1.143V12.86a4.543 4.543 0 013.039-4.307c.98.409 2.084.409 3.065 0 .19.07.377.152.556.247.12.06.229.13.343.2.075.047.15.092.221.143.11.078.215.164.317.251a4.262 4.262 0 01.638.665 4.128 4.128 0 01.37.56c.058.098.11.196.158.298.048.103.09.215.132.324.036.095.074.189.104.286.04.132.068.27.096.406.017.082.04.161.052.243.034.226.05.455.052.684v1.143zm4.571 0H11.43V12.86c0-.18-.01-.356-.027-.532-.004-.051-.012-.102-.018-.154a5.434 5.434 0 00-.185-.913l-.036-.123a5.661 5.661 0 00-.688-1.444l-.022-.033a5.674 5.674 0 00-.315-.423l-.004-.005a5.19 5.19 0 00-.369-.41h.024c.16.021.323.033.486.034h.031c.15 0 .301-.01.45-.029.047-.005.094-.014.14-.021.122-.02.242-.043.36-.073l.103-.026a4.1 4.1 0 00.457-.156 4.543 4.543 0 013.041 4.308v1.143z" fill-opacity=".7"/></g><defs><clipPath id="dea"><path d="M0 0h16v16H0z"/></clipPath></defs></symbol><symbol viewBox="0 0 35 35" id="writing" xmlns="http://www.w3.org/2000/svg"><g clip-path="url(#dfa)"><path d="M4.12 24.957l-.961 1.374c-.064.09-.111.19-.143.296l-.924 3.108a1.024 1.024 0 001.593 1.116l2.592-1.923a5.11 5.11 0 01-2.156-3.971zm29.855-9.437h-3.077V30.9c0 .763.803 1.258 1.485.917l2.203-1.634c.26-.193.414-.499.414-.823V16.545c0-.566-.459-1.026-1.025-1.026zM20.467 3.397a1.025 1.025 0 00-1.428.252l-1.765 2.52 3.36 2.352 1.765-2.52a1.025 1.025 0 00-.252-1.428l-1.68-1.176zM7.669 19.885a5.058 5.058 0 011.557-.268h3.638l6.594-9.417-3.36-2.352-8.43 12.037zm-.324-8.633c-.567.246-1.04.65-1.372 1.172L.322 21.322c-.708 1.417-.206 3.114 1.099 3.952.023-.037.031-.081.056-.117L12.501 9.413a3.25 3.25 0 00-1.256.144l-3.9 1.695zm.856 18.521v.617a1.538 1.538 0 003.077 0v-.513H9.227a5.13 5.13 0 01-1.026-.104zm5.127.102v.513c0 .85.689 1.538 1.538 1.538.753 0 1.35-.55 1.483-1.265-.334-.138-.673-.263-.997-.423l-.711-.363h-1.313z"/><path d="M28.847 15.518h-1.882l-6.516-3.155-5.018 7.166c1.248-.193 2.428-.762 3.325-1.66a1.025 1.025 0 111.45 1.45 8.084 8.084 0 01-5.676 2.352H9.227c-1.643 0-3.077 1.334-3.077 3.076a3.072 3.072 0 003.077 3.077h5.906c.493.192 3.233 2.05 7.425 2.05 2.122 0 4.377-.495 6.29-1.415V15.52z"/></g><defs><clipPath id="dfa"><path d="M0 0h35v35H0z"/></clipPath></defs></symbol><symbol viewBox="0 0 16 12" id="youtube" xmlns="http://www.w3.org/2000/svg"><path d="M15.666 1.76A2.01 2.01 0 0014.25.337C13.003 0 8 0 8 0S2.997 0 1.749.337A2.01 2.01 0 00.334 1.76C0 3.016 0 5.636 0 5.636s0 2.62.334 3.876a1.98 1.98 0 001.415 1.402C2.997 11.25 8 11.25 8 11.25s5.003 0 6.251-.336a1.98 1.98 0 001.415-1.402C16 8.257 16 5.636 16 5.636s0-2.62-.334-3.876zM6.364 8.015V3.257l4.181 2.38-4.181 2.378z"/></symbol></svg>