<svg width="31" height="30" fill="none" xmlns="http://www.w3.org/2000/svg"><circle cx="15.5" cy="15" r="15" fill="#000"/><path d="M13.624 15.738c-1.03 0-1.864.833-1.848 1.854.01.655.37 1.224.901 1.541a1.793 1.793 0 01-.292-.957 1.837 1.837 0 011.848-1.854c.204 0 .399.033.582.092V14.37a4.025 4.025 0 00-.582-.043h-.027v1.503a1.909 1.909 0 00-.582-.092zM18.08 9.61h-.543a3.12 3.12 0 001.18 1.88 3.144 3.144 0 01-.636-1.88z" fill="#F00044"/><path d="M21.188 12.72c-.2 0-.394-.02-.584-.056v1.465c-.69 0-1.361-.135-1.99-.404a5.2 5.2 0 01-1.133-.66l.01 4.517a3.779 3.779 0 01-1.133 2.686 3.852 3.852 0 01-2.734 1.12 3.856 3.856 0 01-2.37-.803 3.87 3.87 0 002.98 1.386 3.851 3.851 0 002.735-1.12 3.778 3.778 0 001.134-2.685l-.038-4.517a5.1 5.1 0 003.123 1.064" fill="#F00044"/><path d="M11.494 15.451a3.864 3.864 0 012.711-1.124v-.541a4.024 4.024 0 00-.581-.043 3.86 3.86 0 00-2.74 1.124 3.804 3.804 0 00-1.127 2.702 3.788 3.788 0 001.495 3.019 3.781 3.781 0 01-.888-2.435 3.828 3.828 0 011.13-2.701zm9.11-2.787v-.543h-.005a3.099 3.099 0 01-1.88-.63c.455.6 1.12 1.026 1.885 1.173z" fill="#08FFF9"/><path d="M14.13 19.974c.24.012.471-.02.685-.089a1.83 1.83 0 001.267-1.734l.002-3.022V9.61h1.453a3.158 3.158 0 01-.061-.584h-2.001v5.518l-.003 3.021a1.83 1.83 0 01-1.267 1.734 1.864 1.864 0 01-1.528-.168c.312.483.845.81 1.452.844z" fill="#08FFF9"/><path d="M14.205 21.345a3.852 3.852 0 002.153-1.077 3.778 3.778 0 001.133-2.686l-.01-4.517a5.1 5.1 0 003.123 1.064v-1.465a3.102 3.102 0 01-1.884-1.173 3.11 3.11 0 01-1.18-1.882h-1.456v5.518l-.002 3.021a1.83 1.83 0 01-1.267 1.734 1.803 1.803 0 01-.686.09 1.853 1.853 0 01-1.452-.841 1.827 1.827 0 01-.902-1.541 1.837 1.837 0 011.849-1.854c.203 0 .399.033.581.091v-1.503a3.864 3.864 0 00-2.711 1.125 3.803 3.803 0 00-1.128 2.7c0 .898.313 1.751.889 2.434.675.52 1.5.803 2.369.803.195.002.39-.013.581-.041z" fill="#fff"/></svg>