<svg width="31" height="30" fill="none" xmlns="http://www.w3.org/2000/svg"><circle cx="15.25" cy="15" r="15" fill="#D0021B"/><g clip-path="url(#clip0)"><path d="M23.508 12.937a3.466 3.466 0 00-3.463-3.463h-8.863a3.466 3.466 0 00-3.463 3.463v4.122a3.463 3.463 0 003.463 3.463h8.859a3.463 3.463 0 003.463-3.463v-4.122h.004zm-5.212 2.373l-3.974 1.967c-.157.083-.684-.03-.684-.205v-4.039c0-.179.532-.292.689-.205l3.803 2.068c.162.095.327.327.166.414z" fill="#fff"/></g><defs><clipPath id="clip0"><path fill="#fff" transform="translate(7.719 9.474)" d="M0 0h15.79v11.053H0z"/></clipPath></defs></svg>